<svg width="504" height="404" viewBox="0 0 504 404" fill="none" xmlns="http://www.w3.org/2000/svg">
<rect width="504" height="105" rx="29" fill="#252525" fill-opacity="0.26"/>
<path d="M226 149L286.14 105L226 105L226 149Z" fill="#252525" fill-opacity="0.26"/>
<path d="M30.6847 46V26.12H43.8167V28.36H33.2047V34.996H42.1367V37.096H33.2047V46H30.6847ZM53.2785 33.54C52.0465 33.5773 50.9545 33.8947 50.0025 34.492C49.0692 35.0893 48.4065 35.92 48.0145 36.984V46H45.5505V31.384H47.8465V34.772C48.3505 33.764 49.0132 32.952 49.8345 32.336C50.6558 31.7013 51.5332 31.3467 52.4665 31.272C52.6532 31.272 52.8118 31.272 52.9425 31.272C53.0732 31.272 53.1852 31.2813 53.2785 31.3V33.54ZM61.7783 46.28C60.6769 46.28 59.6689 46.0747 58.7543 45.664C57.8583 45.2533 57.0836 44.7027 56.4303 44.012C55.7956 43.3213 55.3009 42.5187 54.9463 41.604C54.5916 40.6893 54.4143 39.728 54.4143 38.72C54.4143 37.6933 54.5916 36.7227 54.9463 35.808C55.3196 34.8933 55.8236 34.0907 56.4583 33.4C57.1116 32.7093 57.8863 32.1587 58.7823 31.748C59.6969 31.3373 60.6956 31.132 61.7783 31.132C62.8609 31.132 63.8596 31.3373 64.7743 31.748C65.6889 32.1587 66.4636 32.7093 67.0983 33.4C67.7516 34.0907 68.2556 34.8933 68.6103 35.808C68.9836 36.7227 69.1703 37.6933 69.1703 38.72C69.1703 39.728 68.9929 40.6893 68.6383 41.604C68.2836 42.5187 67.7796 43.3213 67.1263 44.012C66.4729 44.7027 65.6889 45.2533 64.7743 45.664C63.8783 46.0747 62.8796 46.28 61.7783 46.28ZM56.9343 38.748C56.9343 39.5133 57.0556 40.2227 57.2983 40.876C57.5596 41.5293 57.9049 42.0987 58.3343 42.584C58.7823 43.0693 59.2956 43.452 59.8743 43.732C60.4716 44.012 61.1063 44.152 61.7783 44.152C62.4503 44.152 63.0756 44.012 63.6543 43.732C64.2516 43.452 64.7743 43.0693 65.2223 42.584C65.6703 42.08 66.0156 41.5013 66.2583 40.848C66.5196 40.176 66.6503 39.4573 66.6503 38.692C66.6503 37.9453 66.5196 37.2453 66.2583 36.592C66.0156 35.92 65.6703 35.3413 65.2223 34.856C64.7743 34.352 64.2516 33.96 63.6543 33.68C63.0756 33.4 62.4503 33.26 61.7783 33.26C61.1063 33.26 60.4716 33.4093 59.8743 33.708C59.2956 33.988 58.7823 34.38 58.3343 34.884C57.9049 35.3693 57.5596 35.948 57.2983 36.62C57.0556 37.2733 56.9343 37.9827 56.9343 38.748ZM94.192 46H91.728V37.824C91.728 36.2933 91.476 35.164 90.972 34.436C90.4866 33.708 89.7586 33.344 88.788 33.344C87.78 33.344 86.8746 33.708 86.072 34.436C85.288 35.1453 84.728 36.0693 84.392 37.208V46H81.928V37.824C81.928 36.256 81.6853 35.1173 81.2 34.408C80.7146 33.6987 79.9866 33.344 79.016 33.344C78.0266 33.344 77.1306 33.6987 76.328 34.408C75.5253 35.0987 74.956 36.0227 74.62 37.18V46H72.156V31.384H74.396V34.52C74.9933 33.4373 75.768 32.6067 76.72 32.028C77.672 31.4307 78.7453 31.132 79.94 31.132C81.172 31.132 82.1426 31.468 82.852 32.14C83.58 32.7933 84.028 33.6427 84.196 34.688C85.5026 32.3173 87.36 31.132 89.768 31.132C90.608 31.132 91.308 31.2907 91.868 31.608C92.4466 31.9067 92.904 32.336 93.24 32.896C93.576 33.4373 93.8186 34.0813 93.968 34.828C94.1173 35.5747 94.192 36.3867 94.192 37.264V46ZM108.857 46.28C108.167 46.28 107.523 46.168 106.925 45.944C106.328 45.7013 105.805 45.3747 105.357 44.964C104.928 44.5533 104.583 44.0773 104.321 43.536C104.079 42.976 103.957 42.3693 103.957 41.716C103.957 41.044 104.107 40.4373 104.405 39.896C104.704 39.336 105.124 38.86 105.665 38.468C106.225 38.076 106.879 37.768 107.625 37.544C108.391 37.32 109.221 37.208 110.117 37.208C110.827 37.208 111.545 37.2733 112.273 37.404C113.001 37.5347 113.645 37.712 114.205 37.936V36.76C114.205 35.5653 113.869 34.632 113.197 33.96C112.525 33.2693 111.573 32.924 110.341 32.924C108.867 32.924 107.317 33.4933 105.693 34.632L104.881 33.036C106.767 31.7667 108.661 31.132 110.565 31.132C112.488 31.132 113.981 31.6453 115.045 32.672C116.128 33.6987 116.669 35.1453 116.669 37.012V42.976C116.669 43.5547 116.931 43.8533 117.453 43.872V46C117.192 46.0373 116.977 46.0653 116.809 46.084C116.641 46.1027 116.464 46.112 116.277 46.112C115.792 46.112 115.4 45.972 115.101 45.692C114.821 45.3933 114.653 45.0387 114.597 44.628L114.541 43.592C113.888 44.4693 113.057 45.1413 112.049 45.608C111.06 46.056 109.996 46.28 108.857 46.28ZM109.501 44.432C110.379 44.432 111.191 44.2733 111.937 43.956C112.703 43.62 113.281 43.1813 113.673 42.64C114.028 42.2853 114.205 41.9213 114.205 41.548V39.392C113.011 38.9253 111.769 38.692 110.481 38.692C109.249 38.692 108.241 38.9533 107.457 39.476C106.692 39.9987 106.309 40.68 106.309 41.52C106.309 41.9307 106.384 42.3133 106.533 42.668C106.701 43.0227 106.925 43.3307 107.205 43.592C107.504 43.8533 107.849 44.0587 108.241 44.208C108.633 44.3573 109.053 44.432 109.501 44.432ZM127.598 49.976C127.84 50.0133 128.083 50.0413 128.326 50.06C128.568 50.0787 128.755 50.088 128.886 50.088C129.11 50.088 129.306 50.032 129.474 49.92C129.66 49.8267 129.838 49.6307 130.006 49.332C130.192 49.0333 130.398 48.6133 130.622 48.072C130.846 47.5493 131.126 46.8587 131.462 46L125.274 31.384H127.822L132.806 43.788L137.342 31.384H139.694L132.582 49.836C132.32 50.4893 131.882 51.0587 131.266 51.544C130.668 52.048 129.838 52.3 128.774 52.3C128.606 52.3 128.428 52.2907 128.242 52.272C128.074 52.2533 127.859 52.216 127.598 52.16V49.976ZM148.048 46.28C146.946 46.28 145.938 46.0747 145.024 45.664C144.128 45.2533 143.353 44.7027 142.7 44.012C142.065 43.3213 141.57 42.5187 141.216 41.604C140.861 40.6893 140.684 39.728 140.684 38.72C140.684 37.6933 140.861 36.7227 141.216 35.808C141.589 34.8933 142.093 34.0907 142.728 33.4C143.381 32.7093 144.156 32.1587 145.052 31.748C145.966 31.3373 146.965 31.132 148.048 31.132C149.13 31.132 150.129 31.3373 151.044 31.748C151.958 32.1587 152.733 32.7093 153.368 33.4C154.021 34.0907 154.525 34.8933 154.88 35.808C155.253 36.7227 155.44 37.6933 155.44 38.72C155.44 39.728 155.262 40.6893 154.908 41.604C154.553 42.5187 154.049 43.3213 153.396 44.012C152.742 44.7027 151.958 45.2533 151.044 45.664C150.148 46.0747 149.149 46.28 148.048 46.28ZM143.204 38.748C143.204 39.5133 143.325 40.2227 143.568 40.876C143.829 41.5293 144.174 42.0987 144.604 42.584C145.052 43.0693 145.565 43.452 146.144 43.732C146.741 44.012 147.376 44.152 148.048 44.152C148.72 44.152 149.345 44.012 149.924 43.732C150.521 43.452 151.044 43.0693 151.492 42.584C151.94 42.08 152.285 41.5013 152.528 40.848C152.789 40.176 152.92 39.4573 152.92 38.692C152.92 37.9453 152.789 37.2453 152.528 36.592C152.285 35.92 151.94 35.3413 151.492 34.856C151.044 34.352 150.521 33.96 149.924 33.68C149.345 33.4 148.72 33.26 148.048 33.26C147.376 33.26 146.741 33.4093 146.144 33.708C145.565 33.988 145.052 34.38 144.604 34.884C144.174 35.3693 143.829 35.948 143.568 36.62C143.325 37.2733 143.204 37.9827 143.204 38.748ZM162.934 46.28C161.403 46.28 160.246 45.7667 159.462 44.74C158.678 43.7133 158.285 42.1827 158.285 40.148V31.384H160.75V39.672C160.75 42.6587 161.786 44.152 163.858 44.152C164.866 44.152 165.808 43.8347 166.686 43.2C167.582 42.5467 168.244 41.66 168.674 40.54V31.384H171.138V42.976C171.138 43.5547 171.399 43.8533 171.922 43.872V46C171.642 46.0373 171.418 46.056 171.25 46.056C171.1 46.0747 170.951 46.084 170.802 46.084C170.316 46.084 169.906 45.944 169.57 45.664C169.252 45.3653 169.084 45.0013 169.066 44.572L169.01 42.864C168.356 43.9653 167.498 44.8147 166.434 45.412C165.37 45.9907 164.203 46.28 162.934 46.28ZM187.926 46H185.462V37.824C185.462 36.256 185.219 35.1173 184.734 34.408C184.267 33.6987 183.549 33.344 182.578 33.344C182.074 33.344 181.57 33.4467 181.066 33.652C180.562 33.8387 180.086 34.1 179.638 34.436C179.19 34.772 178.798 35.1733 178.462 35.64C178.126 36.1067 177.874 36.62 177.706 37.18V46H175.242V31.384H177.482V34.52C178.061 33.4933 178.891 32.672 179.974 32.056C181.075 31.44 182.27 31.132 183.558 31.132C184.398 31.132 185.098 31.2907 185.658 31.608C186.218 31.9067 186.666 32.336 187.002 32.896C187.338 33.4373 187.571 34.0813 187.702 34.828C187.851 35.5747 187.926 36.3867 187.926 37.264V46ZM197.582 46.168C196.592 46.168 195.678 45.9627 194.838 45.552C194.016 45.1413 193.307 44.5907 192.71 43.9C192.112 43.2093 191.646 42.416 191.31 41.52C190.992 40.624 190.834 39.6907 190.834 38.72C190.834 37.6933 190.992 36.7227 191.31 35.808C191.646 34.8747 192.112 34.0627 192.71 33.372C193.307 32.6813 194.016 32.14 194.838 31.748C195.678 31.3373 196.602 31.132 197.61 31.132C198.842 31.132 199.906 31.4307 200.802 32.028C201.698 32.6253 202.454 33.3813 203.07 34.296V31.384H205.254V45.832C205.254 46.8773 205.058 47.792 204.666 48.576C204.274 49.3787 203.742 50.0507 203.07 50.592C202.398 51.1333 201.604 51.544 200.69 51.824C199.794 52.104 198.832 52.244 197.806 52.244C196.144 52.244 194.791 51.9547 193.746 51.376C192.719 50.816 191.86 50.032 191.17 49.024L192.598 47.764C193.176 48.6227 193.923 49.2667 194.838 49.696C195.752 50.1253 196.742 50.34 197.806 50.34C198.478 50.34 199.112 50.2467 199.71 50.06C200.326 49.8733 200.858 49.5933 201.306 49.22C201.754 48.8467 202.108 48.38 202.37 47.82C202.65 47.26 202.79 46.5973 202.79 45.832V43.256C202.51 43.704 202.174 44.1147 201.782 44.488C201.408 44.8427 200.998 45.1507 200.55 45.412C200.102 45.6547 199.626 45.8413 199.122 45.972C198.618 46.1027 198.104 46.168 197.582 46.168ZM198.338 44.152C198.86 44.152 199.364 44.0587 199.85 43.872C200.335 43.6853 200.783 43.4427 201.194 43.144C201.604 42.8267 201.95 42.472 202.23 42.08C202.51 41.688 202.696 41.2867 202.79 40.876V36.676C202.584 36.172 202.314 35.7147 201.978 35.304C201.66 34.8933 201.296 34.5387 200.886 34.24C200.475 33.9227 200.027 33.68 199.542 33.512C199.075 33.344 198.599 33.26 198.114 33.26C197.367 33.26 196.695 33.4187 196.098 33.736C195.519 34.0533 195.024 34.4733 194.614 34.996C194.203 35.5187 193.886 36.116 193.662 36.788C193.438 37.4413 193.326 38.104 193.326 38.776C193.326 39.504 193.456 40.1947 193.718 40.848C193.979 41.5013 194.334 42.0707 194.782 42.556C195.23 43.0413 195.752 43.4333 196.35 43.732C196.966 44.012 197.628 44.152 198.338 44.152ZM220.064 46.28C219.374 46.28 218.73 46.168 218.132 45.944C217.535 45.7013 217.012 45.3747 216.564 44.964C216.135 44.5533 215.79 44.0773 215.528 43.536C215.286 42.976 215.164 42.3693 215.164 41.716C215.164 41.044 215.314 40.4373 215.612 39.896C215.911 39.336 216.331 38.86 216.872 38.468C217.432 38.076 218.086 37.768 218.832 37.544C219.598 37.32 220.428 37.208 221.324 37.208C222.034 37.208 222.752 37.2733 223.48 37.404C224.208 37.5347 224.852 37.712 225.412 37.936V36.76C225.412 35.5653 225.076 34.632 224.404 33.96C223.732 33.2693 222.78 32.924 221.548 32.924C220.074 32.924 218.524 33.4933 216.9 34.632L216.088 33.036C217.974 31.7667 219.868 31.132 221.772 31.132C223.695 31.132 225.188 31.6453 226.252 32.672C227.335 33.6987 227.876 35.1453 227.876 37.012V42.976C227.876 43.5547 228.138 43.8533 228.66 43.872V46C228.399 46.0373 228.184 46.0653 228.016 46.084C227.848 46.1027 227.671 46.112 227.484 46.112C226.999 46.112 226.607 45.972 226.308 45.692C226.028 45.3933 225.86 45.0387 225.804 44.628L225.748 43.592C225.095 44.4693 224.264 45.1413 223.256 45.608C222.267 46.056 221.203 46.28 220.064 46.28ZM220.708 44.432C221.586 44.432 222.398 44.2733 223.144 43.956C223.91 43.62 224.488 43.1813 224.88 42.64C225.235 42.2853 225.412 41.9213 225.412 41.548V39.392C224.218 38.9253 222.976 38.692 221.688 38.692C220.456 38.692 219.448 38.9533 218.664 39.476C217.899 39.9987 217.516 40.68 217.516 41.52C217.516 41.9307 217.591 42.3133 217.74 42.668C217.908 43.0227 218.132 43.3307 218.412 43.592C218.711 43.8533 219.056 44.0587 219.448 44.208C219.84 44.3573 220.26 44.432 220.708 44.432ZM237.64 46.168C236.651 46.168 235.736 45.9627 234.896 45.552C234.075 45.1413 233.365 44.5907 232.768 43.9C232.171 43.2093 231.704 42.416 231.368 41.52C231.051 40.624 230.892 39.6907 230.892 38.72C230.892 37.6933 231.051 36.7227 231.368 35.808C231.704 34.8747 232.171 34.0627 232.768 33.372C233.365 32.6813 234.075 32.14 234.896 31.748C235.736 31.3373 236.66 31.132 237.668 31.132C238.9 31.132 239.964 31.4307 240.86 32.028C241.756 32.6253 242.512 33.3813 243.128 34.296V31.384H245.312V45.832C245.312 46.8773 245.116 47.792 244.724 48.576C244.332 49.3787 243.8 50.0507 243.128 50.592C242.456 51.1333 241.663 51.544 240.748 51.824C239.852 52.104 238.891 52.244 237.864 52.244C236.203 52.244 234.849 51.9547 233.804 51.376C232.777 50.816 231.919 50.032 231.228 49.024L232.656 47.764C233.235 48.6227 233.981 49.2667 234.896 49.696C235.811 50.1253 236.8 50.34 237.864 50.34C238.536 50.34 239.171 50.2467 239.768 50.06C240.384 49.8733 240.916 49.5933 241.364 49.22C241.812 48.8467 242.167 48.38 242.428 47.82C242.708 47.26 242.848 46.5973 242.848 45.832V43.256C242.568 43.704 242.232 44.1147 241.84 44.488C241.467 44.8427 241.056 45.1507 240.608 45.412C240.16 45.6547 239.684 45.8413 239.18 45.972C238.676 46.1027 238.163 46.168 237.64 46.168ZM238.396 44.152C238.919 44.152 239.423 44.0587 239.908 43.872C240.393 43.6853 240.841 43.4427 241.252 43.144C241.663 42.8267 242.008 42.472 242.288 42.08C242.568 41.688 242.755 41.2867 242.848 40.876V36.676C242.643 36.172 242.372 35.7147 242.036 35.304C241.719 34.8933 241.355 34.5387 240.944 34.24C240.533 33.9227 240.085 33.68 239.6 33.512C239.133 33.344 238.657 33.26 238.172 33.26C237.425 33.26 236.753 33.4187 236.156 33.736C235.577 34.0533 235.083 34.4733 234.672 34.996C234.261 35.5187 233.944 36.116 233.72 36.788C233.496 37.4413 233.384 38.104 233.384 38.776C233.384 39.504 233.515 40.1947 233.776 40.848C234.037 41.5013 234.392 42.0707 234.84 42.556C235.288 43.0413 235.811 43.4333 236.408 43.732C237.024 44.012 237.687 44.152 238.396 44.152ZM255.757 46.28C254.655 46.28 253.647 46.084 252.733 45.692C251.818 45.2813 251.034 44.7307 250.381 44.04C249.727 43.3493 249.214 42.5467 248.841 41.632C248.486 40.6987 248.309 39.7187 248.309 38.692C248.309 37.6653 248.486 36.6947 248.841 35.78C249.214 34.8653 249.727 34.0627 250.381 33.372C251.053 32.6813 251.846 32.14 252.761 31.748C253.675 31.3373 254.683 31.132 255.785 31.132C256.886 31.132 257.885 31.3373 258.781 31.748C259.695 32.1587 260.47 32.7093 261.105 33.4C261.739 34.072 262.225 34.8653 262.561 35.78C262.915 36.676 263.093 37.6093 263.093 38.58C263.093 38.7853 263.083 38.972 263.065 39.14C263.065 39.308 263.055 39.4387 263.037 39.532H250.913C250.969 40.26 251.137 40.9227 251.417 41.52C251.697 42.1173 252.061 42.6307 252.509 43.06C252.957 43.4893 253.461 43.8253 254.021 44.068C254.599 44.3107 255.206 44.432 255.841 44.432C256.289 44.432 256.727 44.376 257.157 44.264C257.586 44.1333 257.987 43.9653 258.361 43.76C258.734 43.5547 259.061 43.3027 259.341 43.004C259.639 42.7053 259.863 42.3693 260.013 41.996L262.141 42.584C261.898 43.1253 261.562 43.62 261.133 44.068C260.722 44.516 260.237 44.908 259.677 45.244C259.135 45.5613 258.529 45.8133 257.857 46C257.185 46.1867 256.485 46.28 255.757 46.28ZM260.769 37.712C260.713 37.0213 260.535 36.3867 260.237 35.808C259.957 35.2107 259.593 34.7067 259.145 34.296C258.715 33.8853 258.211 33.568 257.633 33.344C257.054 33.1013 256.438 32.98 255.785 32.98C255.131 32.98 254.515 33.1013 253.937 33.344C253.358 33.568 252.845 33.8947 252.397 34.324C251.967 34.7347 251.613 35.2293 251.333 35.808C251.071 36.3867 250.913 37.0213 250.857 37.712H260.769ZM265.916 48.268L266.476 45.776H265.636V42.864H267.96V45.776L267.12 48.268H265.916ZM286.38 45.272C286.231 45.3467 286.035 45.44 285.792 45.552C285.549 45.6453 285.269 45.748 284.952 45.86C284.653 45.9533 284.317 46.028 283.944 46.084C283.589 46.1587 283.216 46.196 282.824 46.196C281.928 46.196 281.153 45.9533 280.5 45.468C279.847 44.964 279.52 44.1893 279.52 43.144V33.316H277.532V31.384H279.52V26.512H281.984V31.384H285.26V33.316H281.984V42.388C282.021 42.9293 282.199 43.3213 282.516 43.564C282.833 43.8067 283.207 43.928 283.636 43.928C284.121 43.928 284.56 43.8533 284.952 43.704C285.363 43.536 285.643 43.4053 285.792 43.312L286.38 45.272ZM294.94 46.28C293.839 46.28 292.831 46.084 291.916 45.692C291.002 45.2813 290.218 44.7307 289.564 44.04C288.911 43.3493 288.398 42.5467 288.024 41.632C287.67 40.6987 287.492 39.7187 287.492 38.692C287.492 37.6653 287.67 36.6947 288.024 35.78C288.398 34.8653 288.911 34.0627 289.564 33.372C290.236 32.6813 291.03 32.14 291.944 31.748C292.859 31.3373 293.867 31.132 294.968 31.132C296.07 31.132 297.068 31.3373 297.964 31.748C298.879 32.1587 299.654 32.7093 300.288 33.4C300.923 34.072 301.408 34.8653 301.744 35.78C302.099 36.676 302.276 37.6093 302.276 38.58C302.276 38.7853 302.267 38.972 302.248 39.14C302.248 39.308 302.239 39.4387 302.22 39.532H290.096C290.152 40.26 290.32 40.9227 290.6 41.52C290.88 42.1173 291.244 42.6307 291.692 43.06C292.14 43.4893 292.644 43.8253 293.204 44.068C293.783 44.3107 294.39 44.432 295.024 44.432C295.472 44.432 295.911 44.376 296.34 44.264C296.77 44.1333 297.171 43.9653 297.544 43.76C297.918 43.5547 298.244 43.3027 298.524 43.004C298.823 42.7053 299.047 42.3693 299.196 41.996L301.324 42.584C301.082 43.1253 300.746 43.62 300.316 44.068C299.906 44.516 299.42 44.908 298.86 45.244C298.319 45.5613 297.712 45.8133 297.04 46C296.368 46.1867 295.668 46.28 294.94 46.28ZM299.952 37.712C299.896 37.0213 299.719 36.3867 299.42 35.808C299.14 35.2107 298.776 34.7067 298.328 34.296C297.899 33.8853 297.395 33.568 296.816 33.344C296.238 33.1013 295.622 32.98 294.968 32.98C294.315 32.98 293.699 33.1013 293.12 33.344C292.542 33.568 292.028 33.8947 291.58 34.324C291.151 34.7347 290.796 35.2293 290.516 35.808C290.255 36.3867 290.096 37.0213 290.04 37.712H299.952ZM304.035 38.664C304.035 37.6373 304.213 36.6667 304.567 35.752C304.922 34.8373 305.426 34.044 306.079 33.372C306.733 32.6813 307.507 32.14 308.403 31.748C309.318 31.3373 310.335 31.132 311.455 31.132C312.911 31.132 314.162 31.4587 315.207 32.112C316.271 32.7467 317.074 33.6053 317.615 34.688L315.207 35.444C314.834 34.7533 314.311 34.2213 313.639 33.848C312.967 33.456 312.221 33.26 311.399 33.26C310.727 33.26 310.093 33.4 309.495 33.68C308.898 33.9413 308.385 34.3147 307.955 34.8C307.526 35.2853 307.181 35.8547 306.919 36.508C306.677 37.1613 306.555 37.88 306.555 38.664C306.555 39.4293 306.686 40.148 306.947 40.82C307.209 41.492 307.554 42.08 307.983 42.584C308.431 43.0693 308.945 43.452 309.523 43.732C310.121 44.012 310.755 44.152 311.427 44.152C311.857 44.152 312.277 44.096 312.687 43.984C313.117 43.8533 313.499 43.6853 313.835 43.48C314.19 43.2747 314.498 43.0413 314.759 42.78C315.021 42.5 315.207 42.2013 315.319 41.884L317.727 42.612C317.503 43.1533 317.186 43.648 316.775 44.096C316.383 44.544 315.917 44.9267 315.375 45.244C314.834 45.5613 314.227 45.8133 313.555 46C312.902 46.1867 312.211 46.28 311.483 46.28C310.382 46.28 309.374 46.0747 308.459 45.664C307.545 45.2533 306.761 44.7027 306.107 44.012C305.454 43.3213 304.941 42.5187 304.567 41.604C304.213 40.6707 304.035 39.6907 304.035 38.664ZM333.203 46H330.739V37.824C330.739 36.312 330.478 35.192 329.955 34.464C329.433 33.7173 328.667 33.344 327.659 33.344C327.174 33.344 326.689 33.4467 326.203 33.652C325.718 33.8387 325.261 34.1 324.831 34.436C324.421 34.772 324.047 35.1733 323.711 35.64C323.394 36.1067 323.151 36.62 322.983 37.18V46H320.519V25.56H322.983V34.52C323.562 33.456 324.346 32.6253 325.335 32.028C326.325 31.4307 327.407 31.132 328.583 31.132C329.442 31.132 330.17 31.2907 330.767 31.608C331.365 31.9253 331.841 32.3547 332.195 32.896C332.55 33.4373 332.802 34.0907 332.951 34.856C333.119 35.6027 333.203 36.4053 333.203 37.264V46ZM349.719 46H347.255V37.824C347.255 36.256 347.012 35.1173 346.527 34.408C346.06 33.6987 345.342 33.344 344.371 33.344C343.867 33.344 343.363 33.4467 342.859 33.652C342.355 33.8387 341.879 34.1 341.431 34.436C340.983 34.772 340.591 35.1733 340.255 35.64C339.919 36.1067 339.667 36.62 339.499 37.18V46H337.035V31.384H339.275V34.52C339.854 33.4933 340.684 32.672 341.767 32.056C342.868 31.44 344.063 31.132 345.351 31.132C346.191 31.132 346.891 31.2907 347.451 31.608C348.011 31.9067 348.459 32.336 348.795 32.896C349.131 33.4373 349.364 34.0813 349.495 34.828C349.644 35.5747 349.719 36.3867 349.719 37.264V46ZM359.935 46.28C358.833 46.28 357.825 46.0747 356.911 45.664C356.015 45.2533 355.24 44.7027 354.587 44.012C353.952 43.3213 353.457 42.5187 353.103 41.604C352.748 40.6893 352.571 39.728 352.571 38.72C352.571 37.6933 352.748 36.7227 353.103 35.808C353.476 34.8933 353.98 34.0907 354.615 33.4C355.268 32.7093 356.043 32.1587 356.939 31.748C357.853 31.3373 358.852 31.132 359.935 31.132C361.017 31.132 362.016 31.3373 362.931 31.748C363.845 32.1587 364.62 32.7093 365.255 33.4C365.908 34.0907 366.412 34.8933 366.767 35.808C367.14 36.7227 367.327 37.6933 367.327 38.72C367.327 39.728 367.149 40.6893 366.795 41.604C366.44 42.5187 365.936 43.3213 365.283 44.012C364.629 44.7027 363.845 45.2533 362.931 45.664C362.035 46.0747 361.036 46.28 359.935 46.28ZM355.091 38.748C355.091 39.5133 355.212 40.2227 355.455 40.876C355.716 41.5293 356.061 42.0987 356.491 42.584C356.939 43.0693 357.452 43.452 358.031 43.732C358.628 44.012 359.263 44.152 359.935 44.152C360.607 44.152 361.232 44.012 361.811 43.732C362.408 43.452 362.931 43.0693 363.379 42.584C363.827 42.08 364.172 41.5013 364.415 40.848C364.676 40.176 364.807 39.4573 364.807 38.692C364.807 37.9453 364.676 37.2453 364.415 36.592C364.172 35.92 363.827 35.3413 363.379 34.856C362.931 34.352 362.408 33.96 361.811 33.68C361.232 33.4 360.607 33.26 359.935 33.26C359.263 33.26 358.628 33.4093 358.031 33.708C357.452 33.988 356.939 34.38 356.491 34.884C356.061 35.3693 355.716 35.948 355.455 36.62C355.212 37.2733 355.091 37.9827 355.091 38.748ZM370.368 25.56H372.832V42.22C372.832 42.7613 372.972 43.1907 373.252 43.508C373.551 43.8067 373.962 43.956 374.484 43.956C374.69 43.956 374.932 43.928 375.212 43.872C375.492 43.7973 375.754 43.7133 375.996 43.62L376.388 45.608C375.978 45.776 375.492 45.916 374.932 46.028C374.372 46.14 373.878 46.196 373.448 46.196C372.496 46.196 371.74 45.9253 371.18 45.384C370.639 44.8427 370.368 44.0867 370.368 43.116V25.56ZM384.708 46.28C383.607 46.28 382.599 46.0747 381.684 45.664C380.788 45.2533 380.013 44.7027 379.36 44.012C378.725 43.3213 378.231 42.5187 377.876 41.604C377.521 40.6893 377.344 39.728 377.344 38.72C377.344 37.6933 377.521 36.7227 377.876 35.808C378.249 34.8933 378.753 34.0907 379.388 33.4C380.041 32.7093 380.816 32.1587 381.712 31.748C382.627 31.3373 383.625 31.132 384.708 31.132C385.791 31.132 386.789 31.3373 387.704 31.748C388.619 32.1587 389.393 32.7093 390.028 33.4C390.681 34.0907 391.185 34.8933 391.54 35.808C391.913 36.7227 392.1 37.6933 392.1 38.72C392.1 39.728 391.923 40.6893 391.568 41.604C391.213 42.5187 390.709 43.3213 390.056 44.012C389.403 44.7027 388.619 45.2533 387.704 45.664C386.808 46.0747 385.809 46.28 384.708 46.28ZM379.864 38.748C379.864 39.5133 379.985 40.2227 380.228 40.876C380.489 41.5293 380.835 42.0987 381.264 42.584C381.712 43.0693 382.225 43.452 382.804 43.732C383.401 44.012 384.036 44.152 384.708 44.152C385.38 44.152 386.005 44.012 386.584 43.732C387.181 43.452 387.704 43.0693 388.152 42.584C388.6 42.08 388.945 41.5013 389.188 40.848C389.449 40.176 389.58 39.4573 389.58 38.692C389.58 37.9453 389.449 37.2453 389.188 36.592C388.945 35.92 388.6 35.3413 388.152 34.856C387.704 34.352 387.181 33.96 386.584 33.68C386.005 33.4 385.38 33.26 384.708 33.26C384.036 33.26 383.401 33.4093 382.804 33.708C382.225 33.988 381.712 34.38 381.264 34.884C380.835 35.3693 380.489 35.948 380.228 36.62C379.985 37.2733 379.864 37.9827 379.864 38.748ZM400.91 46.168C399.92 46.168 399.006 45.9627 398.166 45.552C397.344 45.1413 396.635 44.5907 396.038 43.9C395.44 43.2093 394.974 42.416 394.638 41.52C394.32 40.624 394.162 39.6907 394.162 38.72C394.162 37.6933 394.32 36.7227 394.638 35.808C394.974 34.8747 395.44 34.0627 396.038 33.372C396.635 32.6813 397.344 32.14 398.166 31.748C399.006 31.3373 399.93 31.132 400.938 31.132C402.17 31.132 403.234 31.4307 404.13 32.028C405.026 32.6253 405.782 33.3813 406.398 34.296V31.384H408.582V45.832C408.582 46.8773 408.386 47.792 407.994 48.576C407.602 49.3787 407.07 50.0507 406.398 50.592C405.726 51.1333 404.932 51.544 404.018 51.824C403.122 52.104 402.16 52.244 401.134 52.244C399.472 52.244 398.119 51.9547 397.074 51.376C396.047 50.816 395.188 50.032 394.498 49.024L395.926 47.764C396.504 48.6227 397.251 49.2667 398.166 49.696C399.08 50.1253 400.07 50.34 401.134 50.34C401.806 50.34 402.44 50.2467 403.038 50.06C403.654 49.8733 404.186 49.5933 404.634 49.22C405.082 48.8467 405.436 48.38 405.698 47.82C405.978 47.26 406.118 46.5973 406.118 45.832V43.256C405.838 43.704 405.502 44.1147 405.11 44.488C404.736 44.8427 404.326 45.1507 403.878 45.412C403.43 45.6547 402.954 45.8413 402.45 45.972C401.946 46.1027 401.432 46.168 400.91 46.168ZM401.666 44.152C402.188 44.152 402.692 44.0587 403.178 43.872C403.663 43.6853 404.111 43.4427 404.522 43.144C404.932 42.8267 405.278 42.472 405.558 42.08C405.838 41.688 406.024 41.2867 406.118 40.876V36.676C405.912 36.172 405.642 35.7147 405.306 35.304C404.988 34.8933 404.624 34.5387 404.214 34.24C403.803 33.9227 403.355 33.68 402.87 33.512C402.403 33.344 401.927 33.26 401.442 33.26C400.695 33.26 400.023 33.4187 399.426 33.736C398.847 34.0533 398.352 34.4733 397.942 34.996C397.531 35.5187 397.214 36.116 396.99 36.788C396.766 37.4413 396.654 38.104 396.654 38.776C396.654 39.504 396.784 40.1947 397.046 40.848C397.307 41.5013 397.662 42.0707 398.11 42.556C398.558 43.0413 399.08 43.4333 399.678 43.732C400.294 44.012 400.956 44.152 401.666 44.152ZM413.23 49.976C413.473 50.0133 413.716 50.0413 413.958 50.06C414.201 50.0787 414.388 50.088 414.518 50.088C414.742 50.088 414.938 50.032 415.106 49.92C415.293 49.8267 415.47 49.6307 415.638 49.332C415.825 49.0333 416.03 48.6133 416.254 48.072C416.478 47.5493 416.758 46.8587 417.094 46L410.906 31.384H413.454L418.438 43.788L422.974 31.384H425.326L418.214 49.836C417.953 50.4893 417.514 51.0587 416.898 51.544C416.301 52.048 415.47 52.3 414.406 52.3C414.238 52.3 414.061 52.2907 413.874 52.272C413.706 52.2533 413.492 52.216 413.23 52.16V49.976ZM446.817 46H444.353V37.824C444.353 36.312 444.091 35.192 443.569 34.464C443.046 33.7173 442.281 33.344 441.273 33.344C440.787 33.344 440.302 33.4467 439.817 33.652C439.331 33.8387 438.874 34.1 438.445 34.436C438.034 34.772 437.661 35.1733 437.325 35.64C437.007 36.1067 436.765 36.62 436.597 37.18V46H434.133V25.56H436.597V34.52C437.175 33.456 437.959 32.6253 438.949 32.028C439.938 31.4307 441.021 31.132 442.197 31.132C443.055 31.132 443.783 31.2907 444.381 31.608C444.978 31.9253 445.454 32.3547 445.809 32.896C446.163 33.4373 446.415 34.0907 446.565 34.856C446.733 35.6027 446.817 36.4053 446.817 37.264V46ZM454.4 46.28C453.709 46.28 453.065 46.168 452.468 45.944C451.871 45.7013 451.348 45.3747 450.9 44.964C450.471 44.5533 450.125 44.0773 449.864 43.536C449.621 42.976 449.5 42.3693 449.5 41.716C449.5 41.044 449.649 40.4373 449.948 39.896C450.247 39.336 450.667 38.86 451.208 38.468C451.768 38.076 452.421 37.768 453.168 37.544C453.933 37.32 454.764 37.208 455.66 37.208C456.369 37.208 457.088 37.2733 457.816 37.404C458.544 37.5347 459.188 37.712 459.748 37.936V36.76C459.748 35.5653 459.412 34.632 458.74 33.96C458.068 33.2693 457.116 32.924 455.884 32.924C454.409 32.924 452.86 33.4933 451.236 34.632L450.424 33.036C452.309 31.7667 454.204 31.132 456.108 31.132C458.031 31.132 459.524 31.6453 460.588 32.672C461.671 33.6987 462.212 35.1453 462.212 37.012V42.976C462.212 43.5547 462.473 43.8533 462.996 43.872V46C462.735 46.0373 462.52 46.0653 462.352 46.084C462.184 46.1027 462.007 46.112 461.82 46.112C461.335 46.112 460.943 45.972 460.644 45.692C460.364 45.3933 460.196 45.0387 460.14 44.628L460.084 43.592C459.431 44.4693 458.6 45.1413 457.592 45.608C456.603 46.056 455.539 46.28 454.4 46.28ZM455.044 44.432C455.921 44.432 456.733 44.2733 457.48 43.956C458.245 43.62 458.824 43.1813 459.216 42.64C459.571 42.2853 459.748 41.9213 459.748 41.548V39.392C458.553 38.9253 457.312 38.692 456.024 38.692C454.792 38.692 453.784 38.9533 453 39.476C452.235 39.9987 451.852 40.68 451.852 41.52C451.852 41.9307 451.927 42.3133 452.076 42.668C452.244 43.0227 452.468 43.3307 452.748 43.592C453.047 43.8533 453.392 44.0587 453.784 44.208C454.176 44.3573 454.596 44.432 455.044 44.432ZM471.276 46.28C470.1 46.28 468.943 46.1027 467.804 45.748C466.665 45.3747 465.685 44.8427 464.864 44.152L465.928 42.5C466.787 43.1533 467.645 43.648 468.504 43.984C469.363 44.3013 470.268 44.46 471.22 44.46C472.284 44.46 473.124 44.2547 473.74 43.844C474.375 43.4147 474.692 42.8173 474.692 42.052C474.692 41.6973 474.608 41.3987 474.44 41.156C474.272 40.8947 474.02 40.6707 473.684 40.484C473.348 40.2973 472.919 40.1293 472.396 39.98C471.873 39.8307 471.267 39.672 470.576 39.504C469.699 39.28 468.943 39.0653 468.308 38.86C467.673 38.6547 467.151 38.412 466.74 38.132C466.329 37.852 466.031 37.516 465.844 37.124C465.657 36.732 465.564 36.2467 465.564 35.668C465.564 34.94 465.704 34.296 465.984 33.736C466.283 33.1573 466.684 32.6813 467.188 32.308C467.692 31.916 468.28 31.6267 468.952 31.44C469.643 31.2347 470.38 31.132 471.164 31.132C472.265 31.132 473.292 31.3093 474.244 31.664C475.196 32.0187 475.999 32.4853 476.652 33.064L475.532 34.548C474.916 34.0067 474.225 33.6053 473.46 33.344C472.695 33.064 471.911 32.924 471.108 32.924C470.212 32.924 469.447 33.12 468.812 33.512C468.196 33.8853 467.888 34.492 467.888 35.332C467.888 35.668 467.944 35.948 468.056 36.172C468.187 36.396 468.392 36.592 468.672 36.76C468.952 36.928 469.307 37.0773 469.736 37.208C470.184 37.3387 470.716 37.4787 471.332 37.628C472.303 37.852 473.143 38.0853 473.852 38.328C474.58 38.552 475.177 38.8227 475.644 39.14C476.129 39.4573 476.484 39.8307 476.708 40.26C476.951 40.6893 477.072 41.212 477.072 41.828C477.072 43.1907 476.549 44.2733 475.504 45.076C474.459 45.8787 473.049 46.28 471.276 46.28ZM214.377 79.28C213.686 79.28 213.042 79.168 212.445 78.944C211.847 78.7013 211.325 78.3747 210.877 77.964C210.447 77.5533 210.102 77.0773 209.841 76.536C209.598 75.976 209.477 75.3693 209.477 74.716C209.477 74.044 209.626 73.4373 209.925 72.896C210.223 72.336 210.643 71.86 211.185 71.468C211.745 71.076 212.398 70.768 213.145 70.544C213.91 70.32 214.741 70.208 215.637 70.208C216.346 70.208 217.065 70.2733 217.793 70.404C218.521 70.5347 219.165 70.712 219.725 70.936V69.76C219.725 68.5653 219.389 67.632 218.717 66.96C218.045 66.2693 217.093 65.924 215.861 65.924C214.386 65.924 212.837 66.4933 211.213 67.632L210.401 66.036C212.286 64.7667 214.181 64.132 216.085 64.132C218.007 64.132 219.501 64.6453 220.565 65.672C221.647 66.6987 222.189 68.1453 222.189 70.012V75.976C222.189 76.5547 222.45 76.8533 222.973 76.872V79C222.711 79.0373 222.497 79.0653 222.329 79.084C222.161 79.1027 221.983 79.112 221.797 79.112C221.311 79.112 220.919 78.972 220.621 78.692C220.341 78.3933 220.173 78.0387 220.117 77.628L220.061 76.592C219.407 77.4693 218.577 78.1413 217.569 78.608C216.579 79.056 215.515 79.28 214.377 79.28ZM215.021 77.432C215.898 77.432 216.71 77.2733 217.457 76.956C218.222 76.62 218.801 76.1813 219.193 75.64C219.547 75.2853 219.725 74.9213 219.725 74.548V72.392C218.53 71.9253 217.289 71.692 216.001 71.692C214.769 71.692 213.761 71.9533 212.977 72.476C212.211 72.9987 211.829 73.68 211.829 74.52C211.829 74.9307 211.903 75.3133 212.053 75.668C212.221 76.0227 212.445 76.3307 212.725 76.592C213.023 76.8533 213.369 77.0587 213.761 77.208C214.153 77.3573 214.573 77.432 215.021 77.432ZM226.185 58.56H228.649V75.22C228.649 75.7613 228.789 76.1907 229.069 76.508C229.367 76.8067 229.778 76.956 230.301 76.956C230.506 76.956 230.749 76.928 231.029 76.872C231.309 76.7973 231.57 76.7133 231.813 76.62L232.205 78.608C231.794 78.776 231.309 78.916 230.749 79.028C230.189 79.14 229.694 79.196 229.265 79.196C228.313 79.196 227.557 78.9253 226.997 78.384C226.455 77.8427 226.185 77.0867 226.185 76.116V58.56ZM251.933 64.384H254.313L248.097 79H246.053L243.113 71.86L240.201 79H238.157L231.941 64.384H234.293L239.333 76.564L241.797 70.488L239.277 64.412H241.321L243.113 69.088L244.905 64.412H246.949L244.457 70.488L246.921 76.564L251.933 64.384ZM260.013 79.28C259.323 79.28 258.679 79.168 258.081 78.944C257.484 78.7013 256.961 78.3747 256.513 77.964C256.084 77.5533 255.739 77.0773 255.477 76.536C255.235 75.976 255.113 75.3693 255.113 74.716C255.113 74.044 255.263 73.4373 255.561 72.896C255.86 72.336 256.28 71.86 256.821 71.468C257.381 71.076 258.035 70.768 258.781 70.544C259.547 70.32 260.377 70.208 261.273 70.208C261.983 70.208 262.701 70.2733 263.429 70.404C264.157 70.5347 264.801 70.712 265.361 70.936V69.76C265.361 68.5653 265.025 67.632 264.353 66.96C263.681 66.2693 262.729 65.924 261.497 65.924C260.023 65.924 258.473 66.4933 256.849 67.632L256.037 66.036C257.923 64.7667 259.817 64.132 261.721 64.132C263.644 64.132 265.137 64.6453 266.201 65.672C267.284 66.6987 267.825 68.1453 267.825 70.012V75.976C267.825 76.5547 268.087 76.8533 268.609 76.872V79C268.348 79.0373 268.133 79.0653 267.965 79.084C267.797 79.1027 267.62 79.112 267.433 79.112C266.948 79.112 266.556 78.972 266.257 78.692C265.977 78.3933 265.809 78.0387 265.753 77.628L265.697 76.592C265.044 77.4693 264.213 78.1413 263.205 78.608C262.216 79.056 261.152 79.28 260.013 79.28ZM260.657 77.432C261.535 77.432 262.347 77.2733 263.093 76.956C263.859 76.62 264.437 76.1813 264.829 75.64C265.184 75.2853 265.361 74.9213 265.361 74.548V72.392C264.167 71.9253 262.925 71.692 261.637 71.692C260.405 71.692 259.397 71.9533 258.613 72.476C257.848 72.9987 257.465 73.68 257.465 74.52C257.465 74.9307 257.54 75.3133 257.689 75.668C257.857 76.0227 258.081 76.3307 258.361 76.592C258.66 76.8533 259.005 77.0587 259.397 77.208C259.789 77.3573 260.209 77.432 260.657 77.432ZM271.973 82.976C272.215 83.0133 272.458 83.0413 272.701 83.06C272.943 83.0787 273.13 83.088 273.261 83.088C273.485 83.088 273.681 83.032 273.849 82.92C274.035 82.8267 274.213 82.6307 274.381 82.332C274.567 82.0333 274.773 81.6133 274.997 81.072C275.221 80.5493 275.501 79.8587 275.837 79L269.649 64.384H272.197L277.181 76.788L281.717 64.384H284.069L276.957 82.836C276.695 83.4893 276.257 84.0587 275.641 84.544C275.043 85.048 274.213 85.3 273.149 85.3C272.981 85.3 272.803 85.2907 272.617 85.272C272.449 85.2533 272.234 85.216 271.973 85.16V82.976ZM291.3 79.28C290.124 79.28 288.966 79.1027 287.828 78.748C286.689 78.3747 285.709 77.8427 284.888 77.152L285.952 75.5C286.81 76.1533 287.669 76.648 288.528 76.984C289.386 77.3013 290.292 77.46 291.244 77.46C292.308 77.46 293.148 77.2547 293.764 76.844C294.398 76.4147 294.716 75.8173 294.716 75.052C294.716 74.6973 294.632 74.3987 294.464 74.156C294.296 73.8947 294.044 73.6707 293.708 73.484C293.372 73.2973 292.942 73.1293 292.419 72.98C291.897 72.8307 291.29 72.672 290.6 72.504C289.722 72.28 288.966 72.0653 288.332 71.86C287.697 71.6547 287.174 71.412 286.764 71.132C286.353 70.852 286.054 70.516 285.868 70.124C285.681 69.732 285.588 69.2467 285.588 68.668C285.588 67.94 285.728 67.296 286.008 66.736C286.306 66.1573 286.708 65.6813 287.212 65.308C287.716 64.916 288.304 64.6267 288.976 64.44C289.666 64.2347 290.404 64.132 291.188 64.132C292.289 64.132 293.316 64.3093 294.268 64.664C295.22 65.0187 296.022 65.4853 296.676 66.064L295.556 67.548C294.94 67.0067 294.249 66.6053 293.484 66.344C292.718 66.064 291.934 65.924 291.132 65.924C290.236 65.924 289.47 66.12 288.836 66.512C288.22 66.8853 287.912 67.492 287.912 68.332C287.912 68.668 287.968 68.948 288.08 69.172C288.21 69.396 288.416 69.592 288.696 69.76C288.976 69.928 289.33 70.0773 289.76 70.208C290.208 70.3387 290.74 70.4787 291.356 70.628C292.326 70.852 293.166 71.0853 293.876 71.328C294.604 71.552 295.201 71.8227 295.668 72.14C296.153 72.4573 296.508 72.8307 296.732 73.26C296.974 73.6893 297.096 74.212 297.096 74.828C297.096 76.1907 296.573 77.2733 295.528 78.076C294.482 78.8787 293.073 79.28 291.3 79.28ZM307.093 79V64.384H309.557V79H307.093ZM307.093 61.64V58.56H309.557V61.64H307.093ZM326.231 79H323.767V70.824C323.767 69.256 323.524 68.1173 323.039 67.408C322.572 66.6987 321.853 66.344 320.883 66.344C320.379 66.344 319.875 66.4467 319.371 66.652C318.867 66.8387 318.391 67.1 317.943 67.436C317.495 67.772 317.103 68.1733 316.767 68.64C316.431 69.1067 316.179 69.62 316.011 70.18V79H313.547V64.384H315.787V67.52C316.365 66.4933 317.196 65.672 318.279 65.056C319.38 64.44 320.575 64.132 321.863 64.132C322.703 64.132 323.403 64.2907 323.963 64.608C324.523 64.9067 324.971 65.336 325.307 65.896C325.643 66.4373 325.876 67.0813 326.007 67.828C326.156 68.5747 326.231 69.3867 326.231 70.264V79ZM337.486 78.272C337.336 78.3467 337.14 78.44 336.898 78.552C336.655 78.6453 336.375 78.748 336.058 78.86C335.759 78.9533 335.423 79.028 335.05 79.084C334.695 79.1587 334.322 79.196 333.93 79.196C333.034 79.196 332.259 78.9533 331.606 78.468C330.952 77.964 330.626 77.1893 330.626 76.144V66.316H328.638V64.384H330.626V59.512H333.09V64.384H336.366V66.316H333.09V75.388C333.127 75.9293 333.304 76.3213 333.622 76.564C333.939 76.8067 334.312 76.928 334.742 76.928C335.227 76.928 335.666 76.8533 336.058 76.704C336.468 76.536 336.748 76.4053 336.898 76.312L337.486 78.272ZM347.497 66.54C346.265 66.5773 345.173 66.8947 344.221 67.492C343.288 68.0893 342.625 68.92 342.233 69.984V79H339.769V64.384H342.065V67.772C342.569 66.764 343.232 65.952 344.053 65.336C344.875 64.7013 345.752 64.3467 346.685 64.272C346.872 64.272 347.031 64.272 347.161 64.272C347.292 64.272 347.404 64.2813 347.497 64.3V66.54ZM349.941 79V64.384H352.405V79H349.941ZM349.941 61.64V58.56H352.405V61.64H349.941ZM362.218 79.168C361.229 79.168 360.314 78.9627 359.474 78.552C358.653 78.1413 357.944 77.5907 357.346 76.9C356.749 76.2093 356.282 75.416 355.946 74.52C355.629 73.624 355.47 72.6907 355.47 71.72C355.47 70.6933 355.629 69.7227 355.946 68.808C356.282 67.8747 356.749 67.0627 357.346 66.372C357.944 65.6813 358.653 65.14 359.474 64.748C360.314 64.3373 361.238 64.132 362.246 64.132C363.478 64.132 364.542 64.4307 365.438 65.028C366.334 65.6253 367.09 66.3813 367.706 67.296V64.384H369.89V78.832C369.89 79.8773 369.694 80.792 369.302 81.576C368.91 82.3787 368.378 83.0507 367.706 83.592C367.034 84.1333 366.241 84.544 365.326 84.824C364.43 85.104 363.469 85.244 362.442 85.244C360.781 85.244 359.428 84.9547 358.382 84.376C357.356 83.816 356.497 83.032 355.806 82.024L357.234 80.764C357.813 81.6227 358.56 82.2667 359.474 82.696C360.389 83.1253 361.378 83.34 362.442 83.34C363.114 83.34 363.749 83.2467 364.346 83.06C364.962 82.8733 365.494 82.5933 365.942 82.22C366.39 81.8467 366.745 81.38 367.006 80.82C367.286 80.26 367.426 79.5973 367.426 78.832V76.256C367.146 76.704 366.81 77.1147 366.418 77.488C366.045 77.8427 365.634 78.1507 365.186 78.412C364.738 78.6547 364.262 78.8413 363.758 78.972C363.254 79.1027 362.741 79.168 362.218 79.168ZM362.974 77.152C363.497 77.152 364.001 77.0587 364.486 76.872C364.972 76.6853 365.42 76.4427 365.83 76.144C366.241 75.8267 366.586 75.472 366.866 75.08C367.146 74.688 367.333 74.2867 367.426 73.876V69.676C367.221 69.172 366.95 68.7147 366.614 68.304C366.297 67.8933 365.933 67.5387 365.522 67.24C365.112 66.9227 364.664 66.68 364.178 66.512C363.712 66.344 363.236 66.26 362.75 66.26C362.004 66.26 361.332 66.4187 360.734 66.736C360.156 67.0533 359.661 67.4733 359.25 67.996C358.84 68.5187 358.522 69.116 358.298 69.788C358.074 70.4413 357.962 71.104 357.962 71.776C357.962 72.504 358.093 73.1947 358.354 73.848C358.616 74.5013 358.97 75.0707 359.418 75.556C359.866 76.0413 360.389 76.4333 360.986 76.732C361.602 77.012 362.265 77.152 362.974 77.152ZM378.375 79.28C376.844 79.28 375.687 78.7667 374.903 77.74C374.119 76.7133 373.727 75.1827 373.727 73.148V64.384H376.191V72.672C376.191 75.6587 377.227 77.152 379.299 77.152C380.307 77.152 381.25 76.8347 382.127 76.2C383.023 75.5467 383.686 74.66 384.115 73.54V64.384H386.579V75.976C386.579 76.5547 386.84 76.8533 387.363 76.872V79C387.083 79.0373 386.859 79.056 386.691 79.056C386.542 79.0747 386.392 79.084 386.243 79.084C385.758 79.084 385.347 78.944 385.011 78.664C384.694 78.3653 384.526 78.0013 384.507 77.572L384.451 75.864C383.798 76.9653 382.939 77.8147 381.875 78.412C380.811 78.9907 379.644 79.28 378.375 79.28ZM397.151 79.28C396.05 79.28 395.042 79.084 394.127 78.692C393.213 78.2813 392.429 77.7307 391.775 77.04C391.122 76.3493 390.609 75.5467 390.235 74.632C389.881 73.6987 389.703 72.7187 389.703 71.692C389.703 70.6653 389.881 69.6947 390.235 68.78C390.609 67.8653 391.122 67.0627 391.775 66.372C392.447 65.6813 393.241 65.14 394.155 64.748C395.07 64.3373 396.078 64.132 397.179 64.132C398.281 64.132 399.279 64.3373 400.175 64.748C401.09 65.1587 401.865 65.7093 402.499 66.4C403.134 67.072 403.619 67.8653 403.955 68.78C404.31 69.676 404.487 70.6093 404.487 71.58C404.487 71.7853 404.478 71.972 404.459 72.14C404.459 72.308 404.45 72.4387 404.431 72.532H392.307C392.363 73.26 392.531 73.9227 392.811 74.52C393.091 75.1173 393.455 75.6307 393.903 76.06C394.351 76.4893 394.855 76.8253 395.415 77.068C395.994 77.3107 396.601 77.432 397.235 77.432C397.683 77.432 398.122 77.376 398.551 77.264C398.981 77.1333 399.382 76.9653 399.755 76.76C400.129 76.5547 400.455 76.3027 400.735 76.004C401.034 75.7053 401.258 75.3693 401.407 74.996L403.535 75.584C403.293 76.1253 402.957 76.62 402.527 77.068C402.117 77.516 401.631 77.908 401.071 78.244C400.53 78.5613 399.923 78.8133 399.251 79C398.579 79.1867 397.879 79.28 397.151 79.28ZM402.163 70.712C402.107 70.0213 401.93 69.3867 401.631 68.808C401.351 68.2107 400.987 67.7067 400.539 67.296C400.11 66.8853 399.606 66.568 399.027 66.344C398.449 66.1013 397.833 65.98 397.179 65.98C396.526 65.98 395.91 66.1013 395.331 66.344C394.753 66.568 394.239 66.8947 393.791 67.324C393.362 67.7347 393.007 68.2293 392.727 68.808C392.466 69.3867 392.307 70.0213 392.251 70.712H402.163ZM413.246 79.28C412.238 79.28 411.305 79.0747 410.446 78.664C409.588 78.2533 408.85 77.7027 408.234 77.012C407.618 76.3213 407.133 75.5187 406.778 74.604C406.442 73.6893 406.274 72.728 406.274 71.72C406.274 70.6933 406.433 69.7227 406.75 68.808C407.086 67.8747 407.544 67.0627 408.122 66.372C408.72 65.6813 409.42 65.14 410.222 64.748C411.044 64.3373 411.94 64.132 412.91 64.132C414.086 64.132 415.132 64.44 416.046 65.056C416.98 65.672 417.717 66.4187 418.258 67.296V58.56H420.722V75.976C420.722 76.5547 420.984 76.8533 421.506 76.872V79C421.245 79.0373 421.03 79.0653 420.862 79.084C420.713 79.1027 420.564 79.112 420.414 79.112C419.929 79.112 419.5 78.9533 419.126 78.636C418.772 78.3 418.594 77.9173 418.594 77.488V76.256C418.016 77.208 417.241 77.9547 416.27 78.496C415.318 79.0187 414.31 79.28 413.246 79.28ZM413.834 77.152C414.282 77.152 414.74 77.068 415.206 76.9C415.692 76.732 416.14 76.4987 416.55 76.2C416.98 75.9013 417.344 75.556 417.642 75.164C417.96 74.7533 418.165 74.324 418.258 73.876V69.676C418.09 69.2093 417.838 68.7707 417.502 68.36C417.166 67.9307 416.784 67.5667 416.354 67.268C415.944 66.9507 415.496 66.708 415.01 66.54C414.544 66.3533 414.077 66.26 413.61 66.26C412.882 66.26 412.22 66.4187 411.622 66.736C411.044 67.0347 410.54 67.4453 410.11 67.968C409.7 68.472 409.382 69.06 409.158 69.732C408.934 70.3853 408.822 71.0573 408.822 71.748C408.822 72.476 408.953 73.176 409.214 73.848C409.476 74.5013 409.83 75.0707 410.278 75.556C410.726 76.0413 411.249 76.4333 411.846 76.732C412.462 77.012 413.125 77.152 413.834 77.152ZM453.954 79H451.49V70.824C451.49 69.2933 451.238 68.164 450.734 67.436C450.248 66.708 449.52 66.344 448.55 66.344C447.542 66.344 446.636 66.708 445.834 67.436C445.05 68.1453 444.49 69.0693 444.154 70.208V79H441.69V70.824C441.69 69.256 441.447 68.1173 440.962 67.408C440.476 66.6987 439.748 66.344 438.778 66.344C437.788 66.344 436.892 66.6987 436.09 67.408C435.287 68.0987 434.718 69.0227 434.382 70.18V79H431.918V64.384H434.158V67.52C434.755 66.4373 435.53 65.6067 436.482 65.028C437.434 64.4307 438.507 64.132 439.702 64.132C440.934 64.132 441.904 64.468 442.614 65.14C443.342 65.7933 443.79 66.6427 443.958 67.688C445.264 65.3173 447.122 64.132 449.53 64.132C450.37 64.132 451.07 64.2907 451.63 64.608C452.208 64.9067 452.666 65.336 453.002 65.896C453.338 66.4373 453.58 67.0813 453.73 67.828C453.879 68.5747 453.954 69.3867 453.954 70.264V79ZM464.253 79.28C463.152 79.28 462.144 79.084 461.229 78.692C460.314 78.2813 459.53 77.7307 458.877 77.04C458.224 76.3493 457.71 75.5467 457.337 74.632C456.982 73.6987 456.805 72.7187 456.805 71.692C456.805 70.6653 456.982 69.6947 457.337 68.78C457.71 67.8653 458.224 67.0627 458.877 66.372C459.549 65.6813 460.342 65.14 461.257 64.748C462.172 64.3373 463.18 64.132 464.281 64.132C465.382 64.132 466.381 64.3373 467.277 64.748C468.192 65.1587 468.966 65.7093 469.601 66.4C470.236 67.072 470.721 67.8653 471.057 68.78C471.412 69.676 471.589 70.6093 471.589 71.58C471.589 71.7853 471.58 71.972 471.561 72.14C471.561 72.308 471.552 72.4387 471.533 72.532H459.409C459.465 73.26 459.633 73.9227 459.913 74.52C460.193 75.1173 460.557 75.6307 461.005 76.06C461.453 76.4893 461.957 76.8253 462.517 77.068C463.096 77.3107 463.702 77.432 464.337 77.432C464.785 77.432 465.224 77.376 465.653 77.264C466.082 77.1333 466.484 76.9653 466.857 76.76C467.23 76.5547 467.557 76.3027 467.837 76.004C468.136 75.7053 468.36 75.3693 468.509 74.996L470.637 75.584C470.394 76.1253 470.058 76.62 469.629 77.068C469.218 77.516 468.733 77.908 468.173 78.244C467.632 78.5613 467.025 78.8133 466.353 79C465.681 79.1867 464.981 79.28 464.253 79.28ZM469.265 70.712C469.209 70.0213 469.032 69.3867 468.733 68.808C468.453 68.2107 468.089 67.7067 467.641 67.296C467.212 66.8853 466.708 66.568 466.129 66.344C465.55 66.1013 464.934 65.98 464.281 65.98C463.628 65.98 463.012 66.1013 462.433 66.344C461.854 66.568 461.341 66.8947 460.893 67.324C460.464 67.7347 460.109 68.2293 459.829 68.808C459.568 69.3867 459.409 70.0213 459.353 70.712H469.265ZM474.132 79V75.864H476.204V79H474.132Z" fill="white"/>
<g clip-path="url(#clip0)">
<path d="M77.6681 282.477H146.155V273.317L80.7993 271.862L60.7527 210.447C60.7527 210.447 52.6122 213.157 51.3591 213.157C50.106 213.157 72.0307 279.355 72.0307 279.355L77.4587 278.109L77.6681 282.477ZM50.106 283.104L49.8998 299.548H166.201L166.411 282.895L50.106 283.104ZM100.637 300.177L97.5053 301.629L98.3428 386.985L134.883 387.609C134.883 387.609 136.97 403.43 135.508 403.221C134.045 403.015 50.5248 403.844 50.5248 403.844L49.8998 388.026L68.2745 386.985V301.424L66.812 300.177H100.637Z" fill="white" stroke="white" stroke-width="0.265"/>
<path d="M184.635 226.723C196.307 226.723 205.769 216.822 205.769 204.608C205.769 192.394 196.307 182.493 184.635 182.493C172.963 182.493 163.501 192.394 163.501 204.608C163.501 216.822 172.963 226.723 184.635 226.723Z" fill="white" stroke="white" stroke-width="0.258"/>
<path d="M191.185 230.365C192.147 229.311 193.322 228.472 194.632 227.904C196.617 227 199.61 226.237 202.695 226.701C205.788 227.168 208.866 228.804 210.976 230.823C213.085 232.839 214.226 235.325 217.113 249.034C220.004 262.743 224.666 287.718 226.719 302.29C228.772 316.862 228.216 321.027 227.313 323.872C226.407 326.716 225.154 328.243 220.594 328.972C216.032 329.701 208.173 329.633 203.782 326.405C199.401 323.177 198.495 316.793 196.548 304.751C194.598 292.715 191.604 275.018 190.454 261.765C189.307 248.511 190.004 239.696 190.354 235.291C190.698 230.885 190.698 230.885 191.189 230.365H191.185ZM182.154 334.652C181.911 335.534 181.42 337.3 181.567 339.07C181.714 340.836 182.504 342.603 184.129 343.852C185.751 345.105 188.21 345.84 198.054 346.233C207.895 346.625 225.122 346.675 234.585 346.071C244.047 345.466 245.794 344.17 246.653 342.357C247.516 340.54 247.516 338.182 247.047 336.126C246.578 334.063 245.641 332.293 234.797 331.951C223.944 331.608 203.173 332.689 192.789 333.228C182.404 333.77 182.404 333.77 182.157 334.652H182.154Z" fill="white" stroke="white" stroke-width="0.265"/>
<path d="M196.448 323.566C196.104 320.058 195.404 313.036 194.879 309.593C194.354 306.144 195.754 305.651 188.566 305.651C181.379 305.651 167.498 305.505 159.667 305.91C151.836 306.315 150.098 307.275 148.601 308.826C147.101 310.381 145.851 312.518 145.676 317.251C145.501 321.981 146.408 329.293 147.833 341.22C149.261 353.153 151.208 369.697 152.567 379.71C153.923 389.718 154.692 393.192 156.464 395.74C158.254 398.267 160.948 399.9 163.911 400.246C166.754 400.542 169.598 399.728 171.917 397.959C174.039 396.292 175.292 393.927 174.56 382.371C173.832 370.815 171.117 350.049 169.792 339.631C168.47 329.215 168.542 329.144 170.71 329.415C172.879 329.689 177.251 330.318 182.679 330.355C188.11 330.39 194.648 329.841 197.498 329.087C195.904 325.143 197.498 329.087 197.498 329.087C197.079 328.611 196.794 327.075 196.448 323.566Z" fill="white" stroke="white" stroke-width="0.273"/>
<path d="M186.367 343.971L185.501 403.716L191.563 403.392L193.007 343.647L186.367 343.971Z" fill="white" stroke="white" stroke-width="0.281"/>
<path d="M237.459 343.831L236.594 404.393L242.656 404.065L244.1 343.5L237.459 343.831Z" fill="white" stroke="white" stroke-width="0.283"/>
<path d="M231.403 346.962L230.86 395.703L234.678 395.438L235.588 346.697L231.403 346.962Z" fill="white" stroke="white" stroke-width="0.201"/>
<path d="M196.132 346.414L195.585 395.391L199.404 395.127L200.313 346.149L196.132 346.414Z" fill="white" stroke="white" stroke-width="0.202"/>
<path d="M234.09 240.896C236.403 240.896 241.015 240.896 243.684 257.337C246.353 273.782 247.078 306.667 247.421 323.124C247.762 339.575 247.737 339.59 246.687 339.637C245.634 339.687 243.715 339.762 242.431 339.796C241.143 339.833 240.753 339.83 239.99 340.16C239.228 340.494 236.147 342.469 234.128 325.938C232.109 309.406 230.131 275.062 229.747 257.914C229.365 240.765 230.575 240.831 231.181 240.865C231.784 240.896 231.784 240.896 234.094 240.896H234.09Z" fill="white" stroke="white" stroke-width="0.305"/>
<path d="M102.608 264.6C102.33 265.002 102.071 265.413 101.827 265.837C101.35 266.598 101.026 267.445 100.871 268.329C100.711 269.389 100.815 270.576 101.349 271.678C101.88 272.778 102.827 273.747 104.068 274.296C105.302 274.85 106.818 274.984 112.924 273.186C119.027 271.389 129.711 267.662 141.83 262.911C153.942 258.163 187.726 250.953 196.944 246.451C206.163 241.946 189.96 232.979 191.694 230.365C193.432 227.751 192.935 233.013 177.448 237.593C161.964 242.164 132.348 253.284 117.546 258.836C102.746 264.391 102.746 264.391 102.608 264.6Z" fill="white" stroke="white" stroke-width="0.319"/>
<path d="M132.17 269.784C132.004 270.211 131.852 270.643 131.714 271.08C131.432 271.904 131.279 272.765 131.261 273.635C131.255 274.701 131.461 275.872 131.98 276.925C132.495 277.978 133.314 278.863 134.305 279.309C135.292 279.761 136.445 279.776 140.839 277.495C145.236 275.221 152.864 270.653 161.464 264.958C170.057 259.26 194.676 249.38 201.119 244.161C207.566 238.939 194.432 231.325 195.454 228.586C196.479 225.851 196.673 231.122 185.523 236.917C174.373 242.712 153.308 256.144 142.78 262.855C132.249 269.566 132.249 269.566 132.17 269.784Z" fill="white" stroke="white" stroke-width="0.277"/>
<path d="M84.3994 271.102H86.2775V271.831H84.3994V271.102Z" fill="white" stroke="white" stroke-width="0.172"/>
<path d="M90.1053 271.245H92.9241V271.974H90.1053V271.245ZM95.6865 271.143H98.5052V271.872H95.6865V271.143ZM101.061 271.968H103.88V272.697H101.061V271.968Z" fill="white" stroke="white" stroke-width="0.211"/>
<path d="M119.296 272.454H130.042V272.909H119.296V272.454Z" fill="white" stroke="white" stroke-width="0.326"/>
</g>
<defs>
<clipPath id="clip0">
<rect width="208" height="229" fill="white" transform="translate(44 175)"/>
</clipPath>
</defs>
</svg>
