<svg width="658" height="390" viewBox="0 0 658 390" fill="none" xmlns="http://www.w3.org/2000/svg">
<rect width="658" height="130" rx="29" fill="#252525" fill-opacity="0.26"/>
<path d="M321.5 173.5L345.839 130L294.014 130L321.5 173.5Z" fill="#252525" fill-opacity="0.26"/>
<path d="M48.3058 40V20.12H50.8258V40H48.3058ZM74.9533 40H72.4893V31.824C72.4893 30.312 72.2279 29.192 71.7053 28.464C71.1826 27.7173 70.4173 27.344 69.4093 27.344C68.9239 27.344 68.4386 27.4467 67.9533 27.652C67.4679 27.8387 67.0106 28.1 66.5813 28.436C66.1706 28.772 65.7973 29.1733 65.4613 29.64C65.1439 30.1067 64.9013 30.62 64.7333 31.18V40H62.2693V19.56H64.7333V28.52C65.3119 27.456 66.0959 26.6253 67.0853 26.028C68.0746 25.4307 69.1573 25.132 70.3333 25.132C71.1919 25.132 71.9199 25.2907 72.5173 25.608C73.1146 25.9253 73.5906 26.3547 73.9453 26.896C74.2999 27.4373 74.5519 28.0907 74.7013 28.856C74.8693 29.6027 74.9533 30.4053 74.9533 31.264V40ZM85.1689 40.28C84.0675 40.28 83.0595 40.0747 82.1449 39.664C81.2489 39.2533 80.4742 38.7027 79.8209 38.012C79.1862 37.3213 78.6915 36.5187 78.3369 35.604C77.9822 34.6893 77.8049 33.728 77.8049 32.72C77.8049 31.6933 77.9822 30.7227 78.3369 29.808C78.7102 28.8933 79.2142 28.0907 79.8489 27.4C80.5022 26.7093 81.2769 26.1587 82.1729 25.748C83.0875 25.3373 84.0862 25.132 85.1689 25.132C86.2515 25.132 87.2502 25.3373 88.1649 25.748C89.0795 26.1587 89.8542 26.7093 90.4889 27.4C91.1422 28.0907 91.6462 28.8933 92.0009 29.808C92.3742 30.7227 92.5609 31.6933 92.5609 32.72C92.5609 33.728 92.3835 34.6893 92.0289 35.604C91.6742 36.5187 91.1702 37.3213 90.5169 38.012C89.8635 38.7027 89.0795 39.2533 88.1649 39.664C87.2689 40.0747 86.2702 40.28 85.1689 40.28ZM80.3249 32.748C80.3249 33.5133 80.4462 34.2227 80.6889 34.876C80.9502 35.5293 81.2955 36.0987 81.7249 36.584C82.1729 37.0693 82.6862 37.452 83.2649 37.732C83.8622 38.012 84.4969 38.152 85.1689 38.152C85.8409 38.152 86.4662 38.012 87.0449 37.732C87.6422 37.452 88.1649 37.0693 88.6129 36.584C89.0609 36.08 89.4062 35.5013 89.6489 34.848C89.9102 34.176 90.0409 33.4573 90.0409 32.692C90.0409 31.9453 89.9102 31.2453 89.6489 30.592C89.4062 29.92 89.0609 29.3413 88.6129 28.856C88.1649 28.352 87.6422 27.96 87.0449 27.68C86.4662 27.4 85.8409 27.26 85.1689 27.26C84.4969 27.26 83.8622 27.4093 83.2649 27.708C82.6862 27.988 82.1729 28.38 81.7249 28.884C81.2955 29.3693 80.9502 29.948 80.6889 30.62C80.4462 31.2733 80.3249 31.9827 80.3249 32.748ZM103.415 40.28C102.201 40.28 101.128 39.9813 100.195 39.384C99.2799 38.7867 98.5519 38.0307 98.0106 37.116V45.964H95.5466V25.384H97.7306V28.128C98.3093 27.232 99.0559 26.5133 99.9706 25.972C100.904 25.412 101.931 25.132 103.051 25.132C104.059 25.132 104.983 25.3373 105.823 25.748C106.663 26.1587 107.391 26.7187 108.007 27.428C108.623 28.1187 109.099 28.9213 109.435 29.836C109.789 30.7507 109.967 31.7027 109.967 32.692C109.967 33.7373 109.808 34.7267 109.491 35.66C109.173 36.5747 108.725 37.3773 108.147 38.068C107.568 38.74 106.877 39.2813 106.075 39.692C105.272 40.084 104.385 40.28 103.415 40.28ZM102.659 38.152C103.387 38.152 104.04 38.0027 104.619 37.704C105.216 37.3867 105.72 36.976 106.131 36.472C106.56 35.9493 106.887 35.3613 107.111 34.708C107.335 34.0547 107.447 33.3827 107.447 32.692C107.447 31.964 107.316 31.2733 107.055 30.62C106.793 29.948 106.439 29.3693 105.991 28.884C105.543 28.38 105.011 27.988 104.395 27.708C103.797 27.4093 103.144 27.26 102.435 27.26C101.987 27.26 101.52 27.3533 101.035 27.54C100.568 27.708 100.12 27.9413 99.6906 28.24C99.2799 28.52 98.9159 28.8653 98.5986 29.276C98.2999 29.668 98.1039 30.088 98.0106 30.536V34.708C98.2159 35.1933 98.4773 35.6507 98.7946 36.08C99.1119 36.4907 99.4759 36.8547 99.8866 37.172C100.297 37.4707 100.736 37.7133 101.203 37.9C101.669 38.068 102.155 38.152 102.659 38.152ZM119.46 40.28C118.359 40.28 117.351 40.084 116.436 39.692C115.521 39.2813 114.737 38.7307 114.084 38.04C113.431 37.3493 112.917 36.5467 112.544 35.632C112.189 34.6987 112.012 33.7187 112.012 32.692C112.012 31.6653 112.189 30.6947 112.544 29.78C112.917 28.8653 113.431 28.0627 114.084 27.372C114.756 26.6813 115.549 26.14 116.464 25.748C117.379 25.3373 118.387 25.132 119.488 25.132C120.589 25.132 121.588 25.3373 122.484 25.748C123.399 26.1587 124.173 26.7093 124.808 27.4C125.443 28.072 125.928 28.8653 126.264 29.78C126.619 30.676 126.796 31.6093 126.796 32.58C126.796 32.7853 126.787 32.972 126.768 33.14C126.768 33.308 126.759 33.4387 126.74 33.532H114.616C114.672 34.26 114.84 34.9227 115.12 35.52C115.4 36.1173 115.764 36.6307 116.212 37.06C116.66 37.4893 117.164 37.8253 117.724 38.068C118.303 38.3107 118.909 38.432 119.544 38.432C119.992 38.432 120.431 38.376 120.86 38.264C121.289 38.1333 121.691 37.9653 122.064 37.76C122.437 37.5547 122.764 37.3027 123.044 37.004C123.343 36.7053 123.567 36.3693 123.716 35.996L125.844 36.584C125.601 37.1253 125.265 37.62 124.836 38.068C124.425 38.516 123.94 38.908 123.38 39.244C122.839 39.5613 122.232 39.8133 121.56 40C120.888 40.1867 120.188 40.28 119.46 40.28ZM124.472 31.712C124.416 31.0213 124.239 30.3867 123.94 29.808C123.66 29.2107 123.296 28.7067 122.848 28.296C122.419 27.8853 121.915 27.568 121.336 27.344C120.757 27.1013 120.141 26.98 119.488 26.98C118.835 26.98 118.219 27.1013 117.64 27.344C117.061 27.568 116.548 27.8947 116.1 28.324C115.671 28.7347 115.316 29.2293 115.036 29.808C114.775 30.3867 114.616 31.0213 114.56 31.712H124.472ZM144.177 39.272C144.028 39.3467 143.832 39.44 143.589 39.552C143.346 39.6453 143.066 39.748 142.749 39.86C142.45 39.9533 142.114 40.028 141.741 40.084C141.386 40.1587 141.013 40.196 140.621 40.196C139.725 40.196 138.95 39.9533 138.297 39.468C137.644 38.964 137.317 38.1893 137.317 37.144V27.316H135.329V25.384H137.317V20.512H139.781V25.384H143.057V27.316H139.781V36.388C139.818 36.9293 139.996 37.3213 140.313 37.564C140.63 37.8067 141.004 37.928 141.433 37.928C141.918 37.928 142.357 37.8533 142.749 37.704C143.16 37.536 143.44 37.4053 143.589 37.312L144.177 39.272ZM152.653 40.28C151.552 40.28 150.544 40.0747 149.629 39.664C148.733 39.2533 147.959 38.7027 147.305 38.012C146.671 37.3213 146.176 36.5187 145.821 35.604C145.467 34.6893 145.289 33.728 145.289 32.72C145.289 31.6933 145.467 30.7227 145.821 29.808C146.195 28.8933 146.699 28.0907 147.333 27.4C147.987 26.7093 148.761 26.1587 149.657 25.748C150.572 25.3373 151.571 25.132 152.653 25.132C153.736 25.132 154.735 25.3373 155.649 25.748C156.564 26.1587 157.339 26.7093 157.973 27.4C158.627 28.0907 159.131 28.8933 159.485 29.808C159.859 30.7227 160.045 31.6933 160.045 32.72C160.045 33.728 159.868 34.6893 159.513 35.604C159.159 36.5187 158.655 37.3213 158.001 38.012C157.348 38.7027 156.564 39.2533 155.649 39.664C154.753 40.0747 153.755 40.28 152.653 40.28ZM147.809 32.748C147.809 33.5133 147.931 34.2227 148.173 34.876C148.435 35.5293 148.78 36.0987 149.209 36.584C149.657 37.0693 150.171 37.452 150.749 37.732C151.347 38.012 151.981 38.152 152.653 38.152C153.325 38.152 153.951 38.012 154.529 37.732C155.127 37.452 155.649 37.0693 156.097 36.584C156.545 36.08 156.891 35.5013 157.133 34.848C157.395 34.176 157.525 33.4573 157.525 32.692C157.525 31.9453 157.395 31.2453 157.133 30.592C156.891 29.92 156.545 29.3413 156.097 28.856C155.649 28.352 155.127 27.96 154.529 27.68C153.951 27.4 153.325 27.26 152.653 27.26C151.981 27.26 151.347 27.4093 150.749 27.708C150.171 27.988 149.657 28.38 149.209 28.884C148.78 29.3693 148.435 29.948 148.173 30.62C147.931 31.2733 147.809 31.9827 147.809 32.748ZM170.169 19.56H172.633V36.22C172.633 36.7613 172.773 37.1907 173.053 37.508C173.352 37.8067 173.762 37.956 174.285 37.956C174.49 37.956 174.733 37.928 175.013 37.872C175.293 37.7973 175.554 37.7133 175.797 37.62L176.189 39.608C175.778 39.776 175.293 39.916 174.733 40.028C174.173 40.14 173.678 40.196 173.249 40.196C172.297 40.196 171.541 39.9253 170.981 39.384C170.44 38.8427 170.169 38.0867 170.169 37.116V19.56ZM184.593 40.28C183.491 40.28 182.483 40.084 181.569 39.692C180.654 39.2813 179.87 38.7307 179.217 38.04C178.563 37.3493 178.05 36.5467 177.677 35.632C177.322 34.6987 177.145 33.7187 177.145 32.692C177.145 31.6653 177.322 30.6947 177.677 29.78C178.05 28.8653 178.563 28.0627 179.217 27.372C179.889 26.6813 180.682 26.14 181.597 25.748C182.511 25.3373 183.519 25.132 184.621 25.132C185.722 25.132 186.721 25.3373 187.617 25.748C188.531 26.1587 189.306 26.7093 189.941 27.4C190.575 28.072 191.061 28.8653 191.397 29.78C191.751 30.676 191.929 31.6093 191.929 32.58C191.929 32.7853 191.919 32.972 191.901 33.14C191.901 33.308 191.891 33.4387 191.873 33.532H179.749C179.805 34.26 179.973 34.9227 180.253 35.52C180.533 36.1173 180.897 36.6307 181.345 37.06C181.793 37.4893 182.297 37.8253 182.857 38.068C183.435 38.3107 184.042 38.432 184.677 38.432C185.125 38.432 185.563 38.376 185.993 38.264C186.422 38.1333 186.823 37.9653 187.197 37.76C187.57 37.5547 187.897 37.3027 188.177 37.004C188.475 36.7053 188.699 36.3693 188.849 35.996L190.977 36.584C190.734 37.1253 190.398 37.62 189.969 38.068C189.558 38.516 189.073 38.908 188.513 39.244C187.971 39.5613 187.365 39.8133 186.693 40C186.021 40.1867 185.321 40.28 184.593 40.28ZM189.605 31.712C189.549 31.0213 189.371 30.3867 189.073 29.808C188.793 29.2107 188.429 28.7067 187.981 28.296C187.551 27.8853 187.047 27.568 186.469 27.344C185.89 27.1013 185.274 26.98 184.621 26.98C183.967 26.98 183.351 27.1013 182.773 27.344C182.194 27.568 181.681 27.8947 181.233 28.324C180.803 28.7347 180.449 29.2293 180.169 29.808C179.907 30.3867 179.749 31.0213 179.693 31.712H189.605ZM198.513 40L192.745 25.384H195.293L199.913 37.844L204.561 25.384H206.913L201.145 40H198.513ZM215.327 40.28C214.226 40.28 213.218 40.084 212.303 39.692C211.388 39.2813 210.604 38.7307 209.951 38.04C209.298 37.3493 208.784 36.5467 208.411 35.632C208.056 34.6987 207.879 33.7187 207.879 32.692C207.879 31.6653 208.056 30.6947 208.411 29.78C208.784 28.8653 209.298 28.0627 209.951 27.372C210.623 26.6813 211.416 26.14 212.331 25.748C213.246 25.3373 214.254 25.132 215.355 25.132C216.456 25.132 217.455 25.3373 218.351 25.748C219.266 26.1587 220.04 26.7093 220.675 27.4C221.31 28.072 221.795 28.8653 222.131 29.78C222.486 30.676 222.663 31.6093 222.663 32.58C222.663 32.7853 222.654 32.972 222.635 33.14C222.635 33.308 222.626 33.4387 222.607 33.532H210.483C210.539 34.26 210.707 34.9227 210.987 35.52C211.267 36.1173 211.631 36.6307 212.079 37.06C212.527 37.4893 213.031 37.8253 213.591 38.068C214.17 38.3107 214.776 38.432 215.411 38.432C215.859 38.432 216.298 38.376 216.727 38.264C217.156 38.1333 217.558 37.9653 217.931 37.76C218.304 37.5547 218.631 37.3027 218.911 37.004C219.21 36.7053 219.434 36.3693 219.583 35.996L221.711 36.584C221.468 37.1253 221.132 37.62 220.703 38.068C220.292 38.516 219.807 38.908 219.247 39.244C218.706 39.5613 218.099 39.8133 217.427 40C216.755 40.1867 216.055 40.28 215.327 40.28ZM220.339 31.712C220.283 31.0213 220.106 30.3867 219.807 29.808C219.527 29.2107 219.163 28.7067 218.715 28.296C218.286 27.8853 217.782 27.568 217.203 27.344C216.624 27.1013 216.008 26.98 215.355 26.98C214.702 26.98 214.086 27.1013 213.507 27.344C212.928 27.568 212.415 27.8947 211.967 28.324C211.538 28.7347 211.183 29.2293 210.903 29.808C210.642 30.3867 210.483 31.0213 210.427 31.712H220.339ZM233.13 27.54C231.898 27.5773 230.806 27.8947 229.854 28.492C228.921 29.0893 228.258 29.92 227.866 30.984V40H225.402V25.384H227.698V28.772C228.202 27.764 228.865 26.952 229.686 26.336C230.507 25.7013 231.385 25.3467 232.318 25.272C232.505 25.272 232.663 25.272 232.794 25.272C232.925 25.272 233.037 25.2813 233.13 25.3V27.54ZM239.326 40.28C238.635 40.28 237.991 40.168 237.394 39.944C236.797 39.7013 236.274 39.3747 235.826 38.964C235.397 38.5533 235.051 38.0773 234.79 37.536C234.547 36.976 234.426 36.3693 234.426 35.716C234.426 35.044 234.575 34.4373 234.874 33.896C235.173 33.336 235.593 32.86 236.134 32.468C236.694 32.076 237.347 31.768 238.094 31.544C238.859 31.32 239.69 31.208 240.586 31.208C241.295 31.208 242.014 31.2733 242.742 31.404C243.47 31.5347 244.114 31.712 244.674 31.936V30.76C244.674 29.5653 244.338 28.632 243.666 27.96C242.994 27.2693 242.042 26.924 240.81 26.924C239.335 26.924 237.786 27.4933 236.162 28.632L235.35 27.036C237.235 25.7667 239.13 25.132 241.034 25.132C242.957 25.132 244.45 25.6453 245.514 26.672C246.597 27.6987 247.138 29.1453 247.138 31.012V36.976C247.138 37.5547 247.399 37.8533 247.922 37.872V40C247.661 40.0373 247.446 40.0653 247.278 40.084C247.11 40.1027 246.933 40.112 246.746 40.112C246.261 40.112 245.869 39.972 245.57 39.692C245.29 39.3933 245.122 39.0387 245.066 38.628L245.01 37.592C244.357 38.4693 243.526 39.1413 242.518 39.608C241.529 40.056 240.465 40.28 239.326 40.28ZM239.97 38.432C240.847 38.432 241.659 38.2733 242.406 37.956C243.171 37.62 243.75 37.1813 244.142 36.64C244.497 36.2853 244.674 35.9213 244.674 35.548V33.392C243.479 32.9253 242.238 32.692 240.95 32.692C239.718 32.692 238.71 32.9533 237.926 33.476C237.161 33.9987 236.778 34.68 236.778 35.52C236.778 35.9307 236.853 36.3133 237.002 36.668C237.17 37.0227 237.394 37.3307 237.674 37.592C237.973 37.8533 238.318 38.0587 238.71 38.208C239.102 38.3573 239.522 38.432 239.97 38.432ZM256.902 40.168C255.913 40.168 254.998 39.9627 254.158 39.552C253.337 39.1413 252.627 38.5907 252.03 37.9C251.433 37.2093 250.966 36.416 250.63 35.52C250.313 34.624 250.154 33.6907 250.154 32.72C250.154 31.6933 250.313 30.7227 250.63 29.808C250.966 28.8747 251.433 28.0627 252.03 27.372C252.627 26.6813 253.337 26.14 254.158 25.748C254.998 25.3373 255.922 25.132 256.93 25.132C258.162 25.132 259.226 25.4307 260.122 26.028C261.018 26.6253 261.774 27.3813 262.39 28.296V25.384H264.574V39.832C264.574 40.8773 264.378 41.792 263.986 42.576C263.594 43.3787 263.062 44.0507 262.39 44.592C261.718 45.1333 260.925 45.544 260.01 45.824C259.114 46.104 258.153 46.244 257.126 46.244C255.465 46.244 254.111 45.9547 253.066 45.376C252.039 44.816 251.181 44.032 250.49 43.024L251.918 41.764C252.497 42.6227 253.243 43.2667 254.158 43.696C255.073 44.1253 256.062 44.34 257.126 44.34C257.798 44.34 258.433 44.2467 259.03 44.06C259.646 43.8733 260.178 43.5933 260.626 43.22C261.074 42.8467 261.429 42.38 261.69 41.82C261.97 41.26 262.11 40.5973 262.11 39.832V37.256C261.83 37.704 261.494 38.1147 261.102 38.488C260.729 38.8427 260.318 39.1507 259.87 39.412C259.422 39.6547 258.946 39.8413 258.442 39.972C257.938 40.1027 257.425 40.168 256.902 40.168ZM257.658 38.152C258.181 38.152 258.685 38.0587 259.17 37.872C259.655 37.6853 260.103 37.4427 260.514 37.144C260.925 36.8267 261.27 36.472 261.55 36.08C261.83 35.688 262.017 35.2867 262.11 34.876V30.676C261.905 30.172 261.634 29.7147 261.298 29.304C260.981 28.8933 260.617 28.5387 260.206 28.24C259.795 27.9227 259.347 27.68 258.862 27.512C258.395 27.344 257.919 27.26 257.434 27.26C256.687 27.26 256.015 27.4187 255.418 27.736C254.839 28.0533 254.345 28.4733 253.934 28.996C253.523 29.5187 253.206 30.116 252.982 30.788C252.758 31.4413 252.646 32.104 252.646 32.776C252.646 33.504 252.777 34.1947 253.038 34.848C253.299 35.5013 253.654 36.0707 254.102 36.556C254.55 37.0413 255.073 37.4333 255.67 37.732C256.286 38.012 256.949 38.152 257.658 38.152ZM275.019 40.28C273.917 40.28 272.909 40.084 271.995 39.692C271.08 39.2813 270.296 38.7307 269.643 38.04C268.989 37.3493 268.476 36.5467 268.103 35.632C267.748 34.6987 267.571 33.7187 267.571 32.692C267.571 31.6653 267.748 30.6947 268.103 29.78C268.476 28.8653 268.989 28.0627 269.643 27.372C270.315 26.6813 271.108 26.14 272.023 25.748C272.937 25.3373 273.945 25.132 275.047 25.132C276.148 25.132 277.147 25.3373 278.043 25.748C278.957 26.1587 279.732 26.7093 280.367 27.4C281.001 28.072 281.487 28.8653 281.823 29.78C282.177 30.676 282.355 31.6093 282.355 32.58C282.355 32.7853 282.345 32.972 282.327 33.14C282.327 33.308 282.317 33.4387 282.299 33.532H270.175C270.231 34.26 270.398 34.9227 270.678 35.52C270.959 36.1173 271.323 36.6307 271.771 37.06C272.219 37.4893 272.723 37.8253 273.283 38.068C273.861 38.3107 274.468 38.432 275.103 38.432C275.551 38.432 275.989 38.376 276.419 38.264C276.848 38.1333 277.249 37.9653 277.623 37.76C277.996 37.5547 278.323 37.3027 278.603 37.004C278.901 36.7053 279.125 36.3693 279.275 35.996L281.403 36.584C281.16 37.1253 280.824 37.62 280.395 38.068C279.984 38.516 279.499 38.908 278.939 39.244C278.397 39.5613 277.791 39.8133 277.119 40C276.447 40.1867 275.747 40.28 275.019 40.28ZM280.031 31.712C279.975 31.0213 279.797 30.3867 279.499 29.808C279.219 29.2107 278.855 28.7067 278.407 28.296C277.977 27.8853 277.473 27.568 276.895 27.344C276.316 27.1013 275.7 26.98 275.047 26.98C274.393 26.98 273.777 27.1013 273.199 27.344C272.62 27.568 272.107 27.8947 271.659 28.324C271.229 28.7347 270.875 29.2293 270.595 29.808C270.333 30.3867 270.175 31.0213 270.119 31.712H280.031ZM314.212 40H311.748V31.824C311.748 30.2933 311.496 29.164 310.992 28.436C310.506 27.708 309.778 27.344 308.808 27.344C307.8 27.344 306.894 27.708 306.092 28.436C305.308 29.1453 304.748 30.0693 304.412 31.208V40H301.948V31.824C301.948 30.256 301.705 29.1173 301.22 28.408C300.734 27.6987 300.006 27.344 299.036 27.344C298.046 27.344 297.15 27.6987 296.348 28.408C295.545 29.0987 294.976 30.0227 294.64 31.18V40H292.176V25.384H294.416V28.52C295.013 27.4373 295.788 26.6067 296.74 26.028C297.692 25.4307 298.765 25.132 299.96 25.132C301.192 25.132 302.162 25.468 302.872 26.14C303.6 26.7933 304.048 27.6427 304.216 28.688C305.522 26.3173 307.38 25.132 309.788 25.132C310.628 25.132 311.328 25.2907 311.888 25.608C312.466 25.9067 312.924 26.336 313.26 26.896C313.596 27.4373 313.838 28.0813 313.988 28.828C314.137 29.5747 314.212 30.3867 314.212 31.264V40ZM318.441 43.976C318.684 44.0133 318.927 44.0413 319.169 44.06C319.412 44.0787 319.599 44.088 319.729 44.088C319.953 44.088 320.149 44.032 320.317 43.92C320.504 43.8267 320.681 43.6307 320.849 43.332C321.036 43.0333 321.241 42.6133 321.465 42.072C321.689 41.5493 321.969 40.8587 322.305 40L316.117 25.384H318.665L323.649 37.788L328.185 25.384H330.537L323.425 43.836C323.164 44.4893 322.725 45.0587 322.109 45.544C321.512 46.048 320.681 46.3 319.617 46.3C319.449 46.3 319.272 46.2907 319.085 46.272C318.917 46.2533 318.703 46.216 318.441 46.16V43.976ZM344.467 40.28C343.291 40.28 342.134 40.1027 340.995 39.748C339.857 39.3747 338.877 38.8427 338.055 38.152L339.119 36.5C339.978 37.1533 340.837 37.648 341.695 37.984C342.554 38.3013 343.459 38.46 344.411 38.46C345.475 38.46 346.315 38.2547 346.931 37.844C347.566 37.4147 347.883 36.8173 347.883 36.052C347.883 35.6973 347.799 35.3987 347.631 35.156C347.463 34.8947 347.211 34.6707 346.875 34.484C346.539 34.2973 346.11 34.1293 345.587 33.98C345.065 33.8307 344.458 33.672 343.767 33.504C342.89 33.28 342.134 33.0653 341.499 32.86C340.865 32.6547 340.342 32.412 339.931 32.132C339.521 31.852 339.222 31.516 339.035 31.124C338.849 30.732 338.755 30.2467 338.755 29.668C338.755 28.94 338.895 28.296 339.175 27.736C339.474 27.1573 339.875 26.6813 340.379 26.308C340.883 25.916 341.471 25.6267 342.143 25.44C342.834 25.2347 343.571 25.132 344.355 25.132C345.457 25.132 346.483 25.3093 347.435 25.664C348.387 26.0187 349.19 26.4853 349.843 27.064L348.723 28.548C348.107 28.0067 347.417 27.6053 346.651 27.344C345.886 27.064 345.102 26.924 344.299 26.924C343.403 26.924 342.638 27.12 342.003 27.512C341.387 27.8853 341.079 28.492 341.079 29.332C341.079 29.668 341.135 29.948 341.247 30.172C341.378 30.396 341.583 30.592 341.863 30.76C342.143 30.928 342.498 31.0773 342.927 31.208C343.375 31.3387 343.907 31.4787 344.523 31.628C345.494 31.852 346.334 32.0853 347.043 32.328C347.771 32.552 348.369 32.8227 348.835 33.14C349.321 33.4573 349.675 33.8307 349.899 34.26C350.142 34.6893 350.263 35.212 350.263 35.828C350.263 37.1907 349.741 38.2733 348.695 39.076C347.65 39.8787 346.241 40.28 344.467 40.28ZM363.483 40L358.443 32.86L355.643 35.492V40H353.179V19.56H355.643V33L363.147 25.412H365.863L360.039 31.46L366.143 40H363.483ZM368.273 40V25.384H370.737V40H368.273ZM368.273 22.64V19.56H370.737V22.64H368.273ZM374.782 19.56H377.246V36.22C377.246 36.7613 377.386 37.1907 377.666 37.508C377.965 37.8067 378.376 37.956 378.898 37.956C379.104 37.956 379.346 37.928 379.626 37.872C379.906 37.7973 380.168 37.7133 380.41 37.62L380.802 39.608C380.392 39.776 379.906 39.916 379.346 40.028C378.786 40.14 378.292 40.196 377.862 40.196C376.91 40.196 376.154 39.9253 375.594 39.384C375.053 38.8427 374.782 38.0867 374.782 37.116V19.56ZM382.794 19.56H385.258V36.22C385.258 36.7613 385.398 37.1907 385.678 37.508C385.977 37.8067 386.387 37.956 386.91 37.956C387.115 37.956 387.358 37.928 387.638 37.872C387.918 37.7973 388.179 37.7133 388.422 37.62L388.814 39.608C388.403 39.776 387.918 39.916 387.358 40.028C386.798 40.14 386.303 40.196 385.874 40.196C384.922 40.196 384.166 39.9253 383.606 39.384C383.065 38.8427 382.794 38.0867 382.794 37.116V19.56ZM395.874 40.28C394.698 40.28 393.54 40.1027 392.402 39.748C391.263 39.3747 390.283 38.8427 389.462 38.152L390.526 36.5C391.384 37.1533 392.243 37.648 393.102 37.984C393.96 38.3013 394.866 38.46 395.818 38.46C396.882 38.46 397.722 38.2547 398.338 37.844C398.972 37.4147 399.29 36.8173 399.29 36.052C399.29 35.6973 399.206 35.3987 399.038 35.156C398.87 34.8947 398.618 34.6707 398.282 34.484C397.946 34.2973 397.516 34.1293 396.994 33.98C396.471 33.8307 395.864 33.672 395.174 33.504C394.296 33.28 393.54 33.0653 392.906 32.86C392.271 32.6547 391.748 32.412 391.338 32.132C390.927 31.852 390.628 31.516 390.442 31.124C390.255 30.732 390.162 30.2467 390.162 29.668C390.162 28.94 390.302 28.296 390.582 27.736C390.88 27.1573 391.282 26.6813 391.786 26.308C392.29 25.916 392.878 25.6267 393.55 25.44C394.24 25.2347 394.978 25.132 395.762 25.132C396.863 25.132 397.89 25.3093 398.842 25.664C399.794 26.0187 400.596 26.4853 401.25 27.064L400.13 28.548C399.514 28.0067 398.823 27.6053 398.058 27.344C397.292 27.064 396.508 26.924 395.706 26.924C394.81 26.924 394.044 27.12 393.41 27.512C392.794 27.8853 392.486 28.492 392.486 29.332C392.486 29.668 392.542 29.948 392.654 30.172C392.784 30.396 392.99 30.592 393.27 30.76C393.55 30.928 393.904 31.0773 394.334 31.208C394.782 31.3387 395.314 31.4787 395.93 31.628C396.9 31.852 397.74 32.0853 398.45 32.328C399.178 32.552 399.775 32.8227 400.242 33.14C400.727 33.4573 401.082 33.8307 401.306 34.26C401.548 34.6893 401.67 35.212 401.67 35.828C401.67 37.1907 401.147 38.2733 400.102 39.076C399.056 39.8787 397.647 40.28 395.874 40.28ZM415.42 40.28C414.729 40.28 414.085 40.168 413.488 39.944C412.89 39.7013 412.368 39.3747 411.92 38.964C411.49 38.5533 411.145 38.0773 410.884 37.536C410.641 36.976 410.52 36.3693 410.52 35.716C410.52 35.044 410.669 34.4373 410.968 33.896C411.266 33.336 411.686 32.86 412.228 32.468C412.788 32.076 413.441 31.768 414.188 31.544C414.953 31.32 415.784 31.208 416.68 31.208C417.389 31.208 418.108 31.2733 418.836 31.404C419.564 31.5347 420.208 31.712 420.768 31.936V30.76C420.768 29.5653 420.432 28.632 419.76 27.96C419.088 27.2693 418.136 26.924 416.904 26.924C415.429 26.924 413.88 27.4933 412.256 28.632L411.444 27.036C413.329 25.7667 415.224 25.132 417.128 25.132C419.05 25.132 420.544 25.6453 421.608 26.672C422.69 27.6987 423.232 29.1453 423.232 31.012V36.976C423.232 37.5547 423.493 37.8533 424.016 37.872V40C423.754 40.0373 423.54 40.0653 423.372 40.084C423.204 40.1027 423.026 40.112 422.84 40.112C422.354 40.112 421.962 39.972 421.664 39.692C421.384 39.3933 421.216 39.0387 421.16 38.628L421.104 37.592C420.45 38.4693 419.62 39.1413 418.612 39.608C417.622 40.056 416.558 40.28 415.42 40.28ZM416.064 38.432C416.941 38.432 417.753 38.2733 418.5 37.956C419.265 37.62 419.844 37.1813 420.236 36.64C420.59 36.2853 420.768 35.9213 420.768 35.548V33.392C419.573 32.9253 418.332 32.692 417.044 32.692C415.812 32.692 414.804 32.9533 414.02 33.476C413.254 33.9987 412.872 34.68 412.872 35.52C412.872 35.9307 412.946 36.3133 413.096 36.668C413.264 37.0227 413.488 37.3307 413.768 37.592C414.066 37.8533 414.412 38.0587 414.804 38.208C415.196 38.3573 415.616 38.432 416.064 38.432ZM439.856 40H437.392V31.824C437.392 30.256 437.149 29.1173 436.664 28.408C436.197 27.6987 435.478 27.344 434.508 27.344C434.004 27.344 433.5 27.4467 432.996 27.652C432.492 27.8387 432.016 28.1 431.568 28.436C431.12 28.772 430.728 29.1733 430.392 29.64C430.056 30.1067 429.804 30.62 429.636 31.18V40H427.172V25.384H429.412V28.52C429.99 27.4933 430.821 26.672 431.904 26.056C433.005 25.44 434.2 25.132 435.488 25.132C436.328 25.132 437.028 25.2907 437.588 25.608C438.148 25.9067 438.596 26.336 438.932 26.896C439.268 27.4373 439.501 28.0813 439.632 28.828C439.781 29.5747 439.856 30.3867 439.856 31.264V40ZM449.707 40.28C448.699 40.28 447.766 40.0747 446.907 39.664C446.049 39.2533 445.311 38.7027 444.695 38.012C444.079 37.3213 443.594 36.5187 443.239 35.604C442.903 34.6893 442.735 33.728 442.735 32.72C442.735 31.6933 442.894 30.7227 443.211 29.808C443.547 28.8747 444.005 28.0627 444.583 27.372C445.181 26.6813 445.881 26.14 446.683 25.748C447.505 25.3373 448.401 25.132 449.371 25.132C450.547 25.132 451.593 25.44 452.507 26.056C453.441 26.672 454.178 27.4187 454.719 28.296V19.56H457.183V36.976C457.183 37.5547 457.445 37.8533 457.967 37.872V40C457.706 40.0373 457.491 40.0653 457.323 40.084C457.174 40.1027 457.025 40.112 456.875 40.112C456.39 40.112 455.961 39.9533 455.587 39.636C455.233 39.3 455.055 38.9173 455.055 38.488V37.256C454.477 38.208 453.702 38.9547 452.731 39.496C451.779 40.0187 450.771 40.28 449.707 40.28ZM450.295 38.152C450.743 38.152 451.201 38.068 451.667 37.9C452.153 37.732 452.601 37.4987 453.011 37.2C453.441 36.9013 453.805 36.556 454.103 36.164C454.421 35.7533 454.626 35.324 454.719 34.876V30.676C454.551 30.2093 454.299 29.7707 453.963 29.36C453.627 28.9307 453.245 28.5667 452.815 28.268C452.405 27.9507 451.957 27.708 451.471 27.54C451.005 27.3533 450.538 27.26 450.071 27.26C449.343 27.26 448.681 27.4187 448.083 27.736C447.505 28.0347 447.001 28.4453 446.571 28.968C446.161 29.472 445.843 30.06 445.619 30.732C445.395 31.3853 445.283 32.0573 445.283 32.748C445.283 33.476 445.414 34.176 445.675 34.848C445.937 35.5013 446.291 36.0707 446.739 36.556C447.187 37.0413 447.71 37.4333 448.307 37.732C448.923 38.012 449.586 38.152 450.295 38.152ZM474.847 40.28C473.745 40.28 472.737 40.084 471.823 39.692C470.908 39.2813 470.124 38.7307 469.471 38.04C468.817 37.3493 468.304 36.5467 467.931 35.632C467.576 34.6987 467.399 33.7187 467.399 32.692C467.399 31.6653 467.576 30.6947 467.931 29.78C468.304 28.8653 468.817 28.0627 469.471 27.372C470.143 26.6813 470.936 26.14 471.851 25.748C472.765 25.3373 473.773 25.132 474.875 25.132C475.976 25.132 476.975 25.3373 477.871 25.748C478.785 26.1587 479.56 26.7093 480.195 27.4C480.829 28.072 481.315 28.8653 481.651 29.78C482.005 30.676 482.183 31.6093 482.183 32.58C482.183 32.7853 482.173 32.972 482.155 33.14C482.155 33.308 482.145 33.4387 482.127 33.532H470.003C470.059 34.26 470.227 34.9227 470.507 35.52C470.787 36.1173 471.151 36.6307 471.599 37.06C472.047 37.4893 472.551 37.8253 473.111 38.068C473.689 38.3107 474.296 38.432 474.931 38.432C475.379 38.432 475.817 38.376 476.247 38.264C476.676 38.1333 477.077 37.9653 477.451 37.76C477.824 37.5547 478.151 37.3027 478.431 37.004C478.729 36.7053 478.953 36.3693 479.103 35.996L481.231 36.584C480.988 37.1253 480.652 37.62 480.223 38.068C479.812 38.516 479.327 38.908 478.767 39.244C478.225 39.5613 477.619 39.8133 476.947 40C476.275 40.1867 475.575 40.28 474.847 40.28ZM479.859 31.712C479.803 31.0213 479.625 30.3867 479.327 29.808C479.047 29.2107 478.683 28.7067 478.235 28.296C477.805 27.8853 477.301 27.568 476.723 27.344C476.144 27.1013 475.528 26.98 474.875 26.98C474.221 26.98 473.605 27.1013 473.027 27.344C472.448 27.568 471.935 27.8947 471.487 28.324C471.057 28.7347 470.703 29.2293 470.423 29.808C470.161 30.3867 470.003 31.0213 469.947 31.712H479.859ZM485.327 25.384L489.331 30.76L489.555 31.208L489.807 30.76L493.783 25.384H496.387L490.927 32.72L496.415 40H493.811L489.807 34.652L489.555 34.232L489.331 34.652L485.327 40H482.723L488.211 32.72L482.751 25.384H485.327ZM506.598 40.28C505.385 40.28 504.312 39.9813 503.378 39.384C502.464 38.7867 501.736 38.0307 501.194 37.116V45.964H498.73V25.384H500.914V28.128C501.493 27.232 502.24 26.5133 503.154 25.972C504.088 25.412 505.114 25.132 506.234 25.132C507.242 25.132 508.166 25.3373 509.006 25.748C509.846 26.1587 510.574 26.7187 511.19 27.428C511.806 28.1187 512.282 28.9213 512.618 29.836C512.973 30.7507 513.15 31.7027 513.15 32.692C513.15 33.7373 512.992 34.7267 512.674 35.66C512.357 36.5747 511.909 37.3773 511.33 38.068C510.752 38.74 510.061 39.2813 509.258 39.692C508.456 40.084 507.569 40.28 506.598 40.28ZM505.842 38.152C506.57 38.152 507.224 38.0027 507.802 37.704C508.4 37.3867 508.904 36.976 509.314 36.472C509.744 35.9493 510.07 35.3613 510.294 34.708C510.518 34.0547 510.63 33.3827 510.63 32.692C510.63 31.964 510.5 31.2733 510.238 30.62C509.977 29.948 509.622 29.3693 509.174 28.884C508.726 28.38 508.194 27.988 507.578 27.708C506.981 27.4093 506.328 27.26 505.618 27.26C505.17 27.26 504.704 27.3533 504.218 27.54C503.752 27.708 503.304 27.9413 502.874 28.24C502.464 28.52 502.1 28.8653 501.782 29.276C501.484 29.668 501.288 30.088 501.194 30.536V34.708C501.4 35.1933 501.661 35.6507 501.978 36.08C502.296 36.4907 502.66 36.8547 503.07 37.172C503.481 37.4707 503.92 37.7133 504.386 37.9C504.853 38.068 505.338 38.152 505.842 38.152ZM522.644 40.28C521.542 40.28 520.534 40.084 519.62 39.692C518.705 39.2813 517.921 38.7307 517.268 38.04C516.614 37.3493 516.101 36.5467 515.728 35.632C515.373 34.6987 515.196 33.7187 515.196 32.692C515.196 31.6653 515.373 30.6947 515.728 29.78C516.101 28.8653 516.614 28.0627 517.268 27.372C517.94 26.6813 518.733 26.14 519.648 25.748C520.562 25.3373 521.57 25.132 522.672 25.132C523.773 25.132 524.772 25.3373 525.668 25.748C526.582 26.1587 527.357 26.7093 527.992 27.4C528.626 28.072 529.112 28.8653 529.448 29.78C529.802 30.676 529.98 31.6093 529.98 32.58C529.98 32.7853 529.97 32.972 529.952 33.14C529.952 33.308 529.942 33.4387 529.924 33.532H517.8C517.856 34.26 518.023 34.9227 518.303 35.52C518.584 36.1173 518.948 36.6307 519.396 37.06C519.844 37.4893 520.348 37.8253 520.908 38.068C521.486 38.3107 522.093 38.432 522.728 38.432C523.176 38.432 523.614 38.376 524.044 38.264C524.473 38.1333 524.874 37.9653 525.248 37.76C525.621 37.5547 525.948 37.3027 526.228 37.004C526.526 36.7053 526.75 36.3693 526.9 35.996L529.028 36.584C528.785 37.1253 528.449 37.62 528.02 38.068C527.609 38.516 527.124 38.908 526.564 39.244C526.022 39.5613 525.416 39.8133 524.744 40C524.072 40.1867 523.372 40.28 522.644 40.28ZM527.656 31.712C527.6 31.0213 527.422 30.3867 527.124 29.808C526.844 29.2107 526.48 28.7067 526.032 28.296C525.602 27.8853 525.098 27.568 524.52 27.344C523.941 27.1013 523.325 26.98 522.672 26.98C522.018 26.98 521.402 27.1013 520.824 27.344C520.245 27.568 519.732 27.8947 519.284 28.324C518.854 28.7347 518.5 29.2293 518.22 29.808C517.958 30.3867 517.8 31.0213 517.744 31.712H527.656ZM540.446 27.54C539.214 27.5773 538.122 27.8947 537.17 28.492C536.237 29.0893 535.574 29.92 535.182 30.984V40H532.718V25.384H535.014V28.772C535.518 27.764 536.181 26.952 537.002 26.336C537.824 25.7013 538.701 25.3467 539.634 25.272C539.821 25.272 539.98 25.272 540.11 25.272C540.241 25.272 540.353 25.2813 540.446 25.3V27.54ZM550.45 39.272C550.301 39.3467 550.105 39.44 549.862 39.552C549.62 39.6453 549.34 39.748 549.022 39.86C548.724 39.9533 548.388 40.028 548.014 40.084C547.66 40.1587 547.286 40.196 546.894 40.196C545.998 40.196 545.224 39.9533 544.57 39.468C543.917 38.964 543.59 38.1893 543.59 37.144V27.316H541.602V25.384H543.59V20.512H546.054V25.384H549.33V27.316H546.054V36.388C546.092 36.9293 546.269 37.3213 546.586 37.564C546.904 37.8067 547.277 37.928 547.706 37.928C548.192 37.928 548.63 37.8533 549.022 37.704C549.433 37.536 549.713 37.4053 549.862 37.312L550.45 39.272ZM552.734 40V25.384H555.198V40H552.734ZM552.734 22.64V19.56H555.198V22.64H552.734ZM564.311 40.28C563.135 40.28 561.978 40.1027 560.839 39.748C559.701 39.3747 558.721 38.8427 557.899 38.152L558.963 36.5C559.822 37.1533 560.681 37.648 561.539 37.984C562.398 38.3013 563.303 38.46 564.255 38.46C565.319 38.46 566.159 38.2547 566.775 37.844C567.41 37.4147 567.727 36.8173 567.727 36.052C567.727 35.6973 567.643 35.3987 567.475 35.156C567.307 34.8947 567.055 34.6707 566.719 34.484C566.383 34.2973 565.954 34.1293 565.431 33.98C564.909 33.8307 564.302 33.672 563.611 33.504C562.734 33.28 561.978 33.0653 561.343 32.86C560.709 32.6547 560.186 32.412 559.775 32.132C559.365 31.852 559.066 31.516 558.879 31.124C558.693 30.732 558.599 30.2467 558.599 29.668C558.599 28.94 558.739 28.296 559.019 27.736C559.318 27.1573 559.719 26.6813 560.223 26.308C560.727 25.916 561.315 25.6267 561.987 25.44C562.678 25.2347 563.415 25.132 564.199 25.132C565.301 25.132 566.327 25.3093 567.279 25.664C568.231 26.0187 569.034 26.4853 569.687 27.064L568.567 28.548C567.951 28.0067 567.261 27.6053 566.495 27.344C565.73 27.064 564.946 26.924 564.143 26.924C563.247 26.924 562.482 27.12 561.847 27.512C561.231 27.8853 560.923 28.492 560.923 29.332C560.923 29.668 560.979 29.948 561.091 30.172C561.222 30.396 561.427 30.592 561.707 30.76C561.987 30.928 562.342 31.0773 562.771 31.208C563.219 31.3387 563.751 31.4787 564.367 31.628C565.338 31.852 566.178 32.0853 566.887 32.328C567.615 32.552 568.213 32.8227 568.679 33.14C569.165 33.4573 569.519 33.8307 569.743 34.26C569.986 34.6893 570.107 35.212 570.107 35.828C570.107 37.1907 569.585 38.2733 568.539 39.076C567.494 39.8787 566.085 40.28 564.311 40.28ZM579.491 40.28C578.39 40.28 577.382 40.084 576.467 39.692C575.552 39.2813 574.768 38.7307 574.115 38.04C573.462 37.3493 572.948 36.5467 572.575 35.632C572.22 34.6987 572.043 33.7187 572.043 32.692C572.043 31.6653 572.22 30.6947 572.575 29.78C572.948 28.8653 573.462 28.0627 574.115 27.372C574.787 26.6813 575.58 26.14 576.495 25.748C577.41 25.3373 578.418 25.132 579.519 25.132C580.62 25.132 581.619 25.3373 582.515 25.748C583.43 26.1587 584.204 26.7093 584.839 27.4C585.474 28.072 585.959 28.8653 586.295 29.78C586.65 30.676 586.827 31.6093 586.827 32.58C586.827 32.7853 586.818 32.972 586.799 33.14C586.799 33.308 586.79 33.4387 586.771 33.532H574.647C574.703 34.26 574.871 34.9227 575.151 35.52C575.431 36.1173 575.795 36.6307 576.243 37.06C576.691 37.4893 577.195 37.8253 577.755 38.068C578.334 38.3107 578.94 38.432 579.575 38.432C580.023 38.432 580.462 38.376 580.891 38.264C581.32 38.1333 581.722 37.9653 582.095 37.76C582.468 37.5547 582.795 37.3027 583.075 37.004C583.374 36.7053 583.598 36.3693 583.747 35.996L585.875 36.584C585.632 37.1253 585.296 37.62 584.867 38.068C584.456 38.516 583.971 38.908 583.411 39.244C582.87 39.5613 582.263 39.8133 581.591 40C580.919 40.1867 580.219 40.28 579.491 40.28ZM584.503 31.712C584.447 31.0213 584.27 30.3867 583.971 29.808C583.691 29.2107 583.327 28.7067 582.879 28.296C582.45 27.8853 581.946 27.568 581.367 27.344C580.788 27.1013 580.172 26.98 579.519 26.98C578.866 26.98 578.25 27.1013 577.671 27.344C577.092 27.568 576.579 27.8947 576.131 28.324C575.702 28.7347 575.347 29.2293 575.067 29.808C574.806 30.3867 574.647 31.0213 574.591 31.712H584.503ZM604.208 39.272C604.059 39.3467 603.863 39.44 603.62 39.552C603.377 39.6453 603.097 39.748 602.78 39.86C602.481 39.9533 602.145 40.028 601.772 40.084C601.417 40.1587 601.044 40.196 600.652 40.196C599.756 40.196 598.981 39.9533 598.328 39.468C597.675 38.964 597.348 38.1893 597.348 37.144V27.316H595.36V25.384H597.348V20.512H599.812V25.384H603.088V27.316H599.812V36.388C599.849 36.9293 600.027 37.3213 600.344 37.564C600.661 37.8067 601.035 37.928 601.464 37.928C601.949 37.928 602.388 37.8533 602.78 37.704C603.191 37.536 603.471 37.4053 603.62 37.312L604.208 39.272ZM612.685 40.28C611.583 40.28 610.575 40.0747 609.661 39.664C608.765 39.2533 607.99 38.7027 607.337 38.012C606.702 37.3213 606.207 36.5187 605.853 35.604C605.498 34.6893 605.321 33.728 605.321 32.72C605.321 31.6933 605.498 30.7227 605.853 29.808C606.226 28.8933 606.73 28.0907 607.365 27.4C608.018 26.7093 608.793 26.1587 609.689 25.748C610.603 25.3373 611.602 25.132 612.685 25.132C613.767 25.132 614.766 25.3373 615.681 25.748C616.595 26.1587 617.37 26.7093 618.005 27.4C618.658 28.0907 619.162 28.8933 619.517 29.808C619.89 30.7227 620.077 31.6933 620.077 32.72C620.077 33.728 619.899 34.6893 619.545 35.604C619.19 36.5187 618.686 37.3213 618.033 38.012C617.379 38.7027 616.595 39.2533 615.681 39.664C614.785 40.0747 613.786 40.28 612.685 40.28ZM607.841 32.748C607.841 33.5133 607.962 34.2227 608.205 34.876C608.466 35.5293 608.811 36.0987 609.241 36.584C609.689 37.0693 610.202 37.452 610.781 37.732C611.378 38.012 612.013 38.152 612.685 38.152C613.357 38.152 613.982 38.012 614.561 37.732C615.158 37.452 615.681 37.0693 616.129 36.584C616.577 36.08 616.922 35.5013 617.165 34.848C617.426 34.176 617.557 33.4573 617.557 32.692C617.557 31.9453 617.426 31.2453 617.165 30.592C616.922 29.92 616.577 29.3413 616.129 28.856C615.681 28.352 615.158 27.96 614.561 27.68C613.982 27.4 613.357 27.26 612.685 27.26C612.013 27.26 611.378 27.4093 610.781 27.708C610.202 27.988 609.689 28.38 609.241 28.884C608.811 29.3693 608.466 29.948 608.205 30.62C607.962 31.2733 607.841 31.9827 607.841 32.748ZM63.565 73H61.101V64.824C61.101 63.2933 60.849 62.164 60.345 61.436C59.8597 60.708 59.1317 60.344 58.161 60.344C57.153 60.344 56.2477 60.708 55.445 61.436C54.661 62.1453 54.101 63.0693 53.765 64.208V73H51.301V64.824C51.301 63.256 51.0583 62.1173 50.573 61.408C50.0877 60.6987 49.3597 60.344 48.389 60.344C47.3997 60.344 46.5037 60.6987 45.701 61.408C44.8983 62.0987 44.329 63.0227 43.993 64.18V73H41.529V58.384H43.769V61.52C44.3663 60.4373 45.141 59.6067 46.093 59.028C47.045 58.4307 48.1183 58.132 49.313 58.132C50.545 58.132 51.5157 58.468 52.225 59.14C52.953 59.7933 53.401 60.6427 53.569 61.688C54.8757 59.3173 56.733 58.132 59.141 58.132C59.981 58.132 60.681 58.2907 61.241 58.608C61.8197 58.9067 62.277 59.336 62.613 59.896C62.949 60.4373 63.1917 61.0813 63.341 61.828C63.4903 62.5747 63.565 63.3867 63.565 64.264V73ZM71.1482 73.28C70.4575 73.28 69.8135 73.168 69.2162 72.944C68.6189 72.7013 68.0962 72.3747 67.6482 71.964C67.2189 71.5533 66.8735 71.0773 66.6122 70.536C66.3695 69.976 66.2482 69.3693 66.2482 68.716C66.2482 68.044 66.3975 67.4373 66.6962 66.896C66.9949 66.336 67.4149 65.86 67.9562 65.468C68.5162 65.076 69.1695 64.768 69.9162 64.544C70.6815 64.32 71.5122 64.208 72.4082 64.208C73.1175 64.208 73.8362 64.2733 74.5642 64.404C75.2922 64.5347 75.9362 64.712 76.4962 64.936V63.76C76.4962 62.5653 76.1602 61.632 75.4882 60.96C74.8162 60.2693 73.8642 59.924 72.6322 59.924C71.1575 59.924 69.6082 60.4933 67.9842 61.632L67.1722 60.036C69.0575 58.7667 70.9522 58.132 72.8562 58.132C74.7789 58.132 76.2722 58.6453 77.3362 59.672C78.4189 60.6987 78.9602 62.1453 78.9602 64.012V69.976C78.9602 70.5547 79.2215 70.8533 79.7442 70.872V73C79.4829 73.0373 79.2682 73.0653 79.1002 73.084C78.9322 73.1027 78.7549 73.112 78.5682 73.112C78.0829 73.112 77.6909 72.972 77.3922 72.692C77.1122 72.3933 76.9442 72.0387 76.8882 71.628L76.8322 70.592C76.1789 71.4693 75.3482 72.1413 74.3402 72.608C73.3509 73.056 72.2869 73.28 71.1482 73.28ZM71.7922 71.432C72.6695 71.432 73.4815 71.2733 74.2282 70.956C74.9935 70.62 75.5722 70.1813 75.9642 69.64C76.3189 69.2853 76.4962 68.9213 76.4962 68.548V66.392C75.3015 65.9253 74.0602 65.692 72.7722 65.692C71.5402 65.692 70.5322 65.9533 69.7482 66.476C68.9829 66.9987 68.6002 67.68 68.6002 68.52C68.6002 68.9307 68.6749 69.3133 68.8242 69.668C68.9922 70.0227 69.2162 70.3307 69.4962 70.592C69.7949 70.8533 70.1402 71.0587 70.5322 71.208C70.9242 71.3573 71.3442 71.432 71.7922 71.432ZM93.2041 73L88.1641 65.86L85.3641 68.492V73H82.9001V52.56H85.3641V66L92.8681 58.412H95.5841L89.7601 64.46L95.8641 73H93.2041ZM103.696 73.28C102.595 73.28 101.587 73.084 100.672 72.692C99.7576 72.2813 98.9736 71.7307 98.3202 71.04C97.6669 70.3493 97.1536 69.5467 96.7802 68.632C96.4256 67.6987 96.2482 66.7187 96.2482 65.692C96.2482 64.6653 96.4256 63.6947 96.7802 62.78C97.1536 61.8653 97.6669 61.0627 98.3202 60.372C98.9922 59.6813 99.7856 59.14 100.7 58.748C101.615 58.3373 102.623 58.132 103.724 58.132C104.826 58.132 105.824 58.3373 106.72 58.748C107.635 59.1587 108.41 59.7093 109.044 60.4C109.679 61.072 110.164 61.8653 110.5 62.78C110.855 63.676 111.032 64.6093 111.032 65.58C111.032 65.7853 111.023 65.972 111.004 66.14C111.004 66.308 110.995 66.4387 110.976 66.532H98.8522C98.9082 67.26 99.0762 67.9227 99.3562 68.52C99.6362 69.1173 100 69.6307 100.448 70.06C100.896 70.4893 101.4 70.8253 101.96 71.068C102.539 71.3107 103.146 71.432 103.78 71.432C104.228 71.432 104.667 71.376 105.096 71.264C105.526 71.1333 105.927 70.9653 106.3 70.76C106.674 70.5547 107 70.3027 107.28 70.004C107.579 69.7053 107.803 69.3693 107.952 68.996L110.08 69.584C109.838 70.1253 109.502 70.62 109.072 71.068C108.662 71.516 108.176 71.908 107.616 72.244C107.075 72.5613 106.468 72.8133 105.796 73C105.124 73.1867 104.424 73.28 103.696 73.28ZM108.708 64.712C108.652 64.0213 108.475 63.3867 108.176 62.808C107.896 62.2107 107.532 61.7067 107.084 61.296C106.655 60.8853 106.151 60.568 105.572 60.344C104.994 60.1013 104.378 59.98 103.724 59.98C103.071 59.98 102.455 60.1013 101.876 60.344C101.298 60.568 100.784 60.8947 100.336 61.324C99.9069 61.7347 99.5522 62.2293 99.2722 62.808C99.0109 63.3867 98.8522 64.0213 98.7962 64.712H108.708ZM142.889 73H140.425V64.824C140.425 63.2933 140.173 62.164 139.669 61.436C139.184 60.708 138.456 60.344 137.485 60.344C136.477 60.344 135.572 60.708 134.769 61.436C133.985 62.1453 133.425 63.0693 133.089 64.208V73H130.625V64.824C130.625 63.256 130.383 62.1173 129.897 61.408C129.412 60.6987 128.684 60.344 127.713 60.344C126.724 60.344 125.828 60.6987 125.025 61.408C124.223 62.0987 123.653 63.0227 123.317 64.18V73H120.853V58.384H123.093V61.52C123.691 60.4373 124.465 59.6067 125.417 59.028C126.369 58.4307 127.443 58.132 128.637 58.132C129.869 58.132 130.84 58.468 131.549 59.14C132.277 59.7933 132.725 60.6427 132.893 61.688C134.2 59.3173 136.057 58.132 138.465 58.132C139.305 58.132 140.005 58.2907 140.565 58.608C141.144 58.9067 141.601 59.336 141.937 59.896C142.273 60.4373 142.516 61.0813 142.665 61.828C142.815 62.5747 142.889 63.3867 142.889 64.264V73ZM153.188 73.28C152.087 73.28 151.079 73.084 150.164 72.692C149.25 72.2813 148.466 71.7307 147.812 71.04C147.159 70.3493 146.646 69.5467 146.272 68.632C145.918 67.6987 145.74 66.7187 145.74 65.692C145.74 64.6653 145.918 63.6947 146.272 62.78C146.646 61.8653 147.159 61.0627 147.812 60.372C148.484 59.6813 149.278 59.14 150.192 58.748C151.107 58.3373 152.115 58.132 153.216 58.132C154.318 58.132 155.316 58.3373 156.212 58.748C157.127 59.1587 157.902 59.7093 158.536 60.4C159.171 61.072 159.656 61.8653 159.992 62.78C160.347 63.676 160.524 64.6093 160.524 65.58C160.524 65.7853 160.515 65.972 160.496 66.14C160.496 66.308 160.487 66.4387 160.468 66.532H148.344C148.4 67.26 148.568 67.9227 148.848 68.52C149.128 69.1173 149.492 69.6307 149.94 70.06C150.388 70.4893 150.892 70.8253 151.452 71.068C152.031 71.3107 152.638 71.432 153.272 71.432C153.72 71.432 154.159 71.376 154.588 71.264C155.018 71.1333 155.419 70.9653 155.792 70.76C156.166 70.5547 156.492 70.3027 156.772 70.004C157.071 69.7053 157.295 69.3693 157.444 68.996L159.572 69.584C159.33 70.1253 158.994 70.62 158.564 71.068C158.154 71.516 157.668 71.908 157.108 72.244C156.567 72.5613 155.96 72.8133 155.288 73C154.616 73.1867 153.916 73.28 153.188 73.28ZM158.2 64.712C158.144 64.0213 157.967 63.3867 157.668 62.808C157.388 62.2107 157.024 61.7067 156.576 61.296C156.147 60.8853 155.643 60.568 155.064 60.344C154.486 60.1013 153.87 59.98 153.216 59.98C152.563 59.98 151.947 60.1013 151.368 60.344C150.79 60.568 150.276 60.8947 149.828 61.324C149.399 61.7347 149.044 62.2293 148.764 62.808C148.503 63.3867 148.344 64.0213 148.288 64.712H158.2ZM167.015 73.28C166.325 73.28 165.681 73.168 165.083 72.944C164.486 72.7013 163.963 72.3747 163.515 71.964C163.086 71.5533 162.741 71.0773 162.479 70.536C162.237 69.976 162.115 69.3693 162.115 68.716C162.115 68.044 162.265 67.4373 162.563 66.896C162.862 66.336 163.282 65.86 163.823 65.468C164.383 65.076 165.037 64.768 165.783 64.544C166.549 64.32 167.379 64.208 168.275 64.208C168.985 64.208 169.703 64.2733 170.431 64.404C171.159 64.5347 171.803 64.712 172.363 64.936V63.76C172.363 62.5653 172.027 61.632 171.355 60.96C170.683 60.2693 169.731 59.924 168.499 59.924C167.025 59.924 165.475 60.4933 163.851 61.632L163.039 60.036C164.925 58.7667 166.819 58.132 168.723 58.132C170.646 58.132 172.139 58.6453 173.203 59.672C174.286 60.6987 174.827 62.1453 174.827 64.012V69.976C174.827 70.5547 175.089 70.8533 175.611 70.872V73C175.35 73.0373 175.135 73.0653 174.967 73.084C174.799 73.1027 174.622 73.112 174.435 73.112C173.95 73.112 173.558 72.972 173.259 72.692C172.979 72.3933 172.811 72.0387 172.755 71.628L172.699 70.592C172.046 71.4693 171.215 72.1413 170.207 72.608C169.218 73.056 168.154 73.28 167.015 73.28ZM167.659 71.432C168.537 71.432 169.349 71.2733 170.095 70.956C170.861 70.62 171.439 70.1813 171.831 69.64C172.186 69.2853 172.363 68.9213 172.363 68.548V66.392C171.169 65.9253 169.927 65.692 168.639 65.692C167.407 65.692 166.399 65.9533 165.615 66.476C164.85 66.9987 164.467 67.68 164.467 68.52C164.467 68.9307 164.542 69.3133 164.691 69.668C164.859 70.0227 165.083 70.3307 165.363 70.592C165.662 70.8533 166.007 71.0587 166.399 71.208C166.791 71.3573 167.211 71.432 167.659 71.432ZM191.451 73H188.987V64.824C188.987 63.256 188.745 62.1173 188.259 61.408C187.793 60.6987 187.074 60.344 186.103 60.344C185.599 60.344 185.095 60.4467 184.591 60.652C184.087 60.8387 183.611 61.1 183.163 61.436C182.715 61.772 182.323 62.1733 181.987 62.64C181.651 63.1067 181.399 63.62 181.231 64.18V73H178.767V58.384H181.007V61.52C181.586 60.4933 182.417 59.672 183.499 59.056C184.601 58.44 185.795 58.132 187.083 58.132C187.923 58.132 188.623 58.2907 189.183 58.608C189.743 58.9067 190.191 59.336 190.527 59.896C190.863 60.4373 191.097 61.0813 191.227 61.828C191.377 62.5747 191.451 63.3867 191.451 64.264V73ZM195.283 73V58.384H197.747V73H195.283ZM195.283 55.64V52.56H197.747V55.64H195.283ZM214.42 73H211.956V64.824C211.956 63.256 211.713 62.1173 211.228 61.408C210.761 60.6987 210.043 60.344 209.072 60.344C208.568 60.344 208.064 60.4467 207.56 60.652C207.056 60.8387 206.58 61.1 206.132 61.436C205.684 61.772 205.292 62.1733 204.956 62.64C204.62 63.1067 204.368 63.62 204.2 64.18V73H201.736V58.384H203.976V61.52C204.555 60.4933 205.385 59.672 206.468 59.056C207.569 58.44 208.764 58.132 210.052 58.132C210.892 58.132 211.592 58.2907 212.152 58.608C212.712 58.9067 213.16 59.336 213.496 59.896C213.832 60.4373 214.065 61.0813 214.196 61.828C214.345 62.5747 214.42 63.3867 214.42 64.264V73ZM224.076 73.168C223.086 73.168 222.172 72.9627 221.332 72.552C220.51 72.1413 219.801 71.5907 219.204 70.9C218.606 70.2093 218.14 69.416 217.804 68.52C217.486 67.624 217.328 66.6907 217.328 65.72C217.328 64.6933 217.486 63.7227 217.804 62.808C218.14 61.8747 218.606 61.0627 219.204 60.372C219.801 59.6813 220.51 59.14 221.332 58.748C222.172 58.3373 223.096 58.132 224.104 58.132C225.336 58.132 226.4 58.4307 227.296 59.028C228.192 59.6253 228.948 60.3813 229.564 61.296V58.384H231.748V72.832C231.748 73.8773 231.552 74.792 231.16 75.576C230.768 76.3787 230.236 77.0507 229.564 77.592C228.892 78.1333 228.098 78.544 227.184 78.824C226.288 79.104 225.326 79.244 224.3 79.244C222.638 79.244 221.285 78.9547 220.24 78.376C219.213 77.816 218.354 77.032 217.664 76.024L219.092 74.764C219.67 75.6227 220.417 76.2667 221.332 76.696C222.246 77.1253 223.236 77.34 224.3 77.34C224.972 77.34 225.606 77.2467 226.204 77.06C226.82 76.8733 227.352 76.5933 227.8 76.22C228.248 75.8467 228.602 75.38 228.864 74.82C229.144 74.26 229.284 73.5973 229.284 72.832V70.256C229.004 70.704 228.668 71.1147 228.276 71.488C227.902 71.8427 227.492 72.1507 227.044 72.412C226.596 72.6547 226.12 72.8413 225.616 72.972C225.112 73.1027 224.598 73.168 224.076 73.168ZM224.832 71.152C225.354 71.152 225.858 71.0587 226.344 70.872C226.829 70.6853 227.277 70.4427 227.688 70.144C228.098 69.8267 228.444 69.472 228.724 69.08C229.004 68.688 229.19 68.2867 229.284 67.876V63.676C229.078 63.172 228.808 62.7147 228.472 62.304C228.154 61.8933 227.79 61.5387 227.38 61.24C226.969 60.9227 226.521 60.68 226.036 60.512C225.569 60.344 225.093 60.26 224.608 60.26C223.861 60.26 223.189 60.4187 222.592 60.736C222.013 61.0533 221.518 61.4733 221.108 61.996C220.697 62.5187 220.38 63.116 220.156 63.788C219.932 64.4413 219.82 65.104 219.82 65.776C219.82 66.504 219.95 67.1947 220.212 67.848C220.473 68.5013 220.828 69.0707 221.276 69.556C221.724 70.0413 222.246 70.4333 222.844 70.732C223.46 71.012 224.122 71.152 224.832 71.152ZM236.508 73V60.316H234.52V58.384H236.508V58.076C236.508 56.2653 236.91 54.8467 237.712 53.82C238.515 52.7933 239.607 52.28 240.988 52.28C241.567 52.28 242.136 52.364 242.696 52.532C243.256 52.6813 243.76 52.896 244.208 53.176L243.592 54.996C243.331 54.8093 243.004 54.66 242.612 54.548C242.239 54.436 241.866 54.38 241.492 54.38C240.671 54.38 240.046 54.688 239.616 55.304C239.187 55.92 238.972 56.816 238.972 57.992V58.384H242.864V60.316H238.972V73H236.508ZM249.83 73.28C248.299 73.28 247.142 72.7667 246.358 71.74C245.574 70.7133 245.182 69.1827 245.182 67.148V58.384H247.646V66.672C247.646 69.6587 248.682 71.152 250.754 71.152C251.762 71.152 252.705 70.8347 253.582 70.2C254.478 69.5467 255.141 68.66 255.57 67.54V58.384H258.034V69.976C258.034 70.5547 258.295 70.8533 258.818 70.872V73C258.538 73.0373 258.314 73.056 258.146 73.056C257.997 73.0747 257.847 73.084 257.698 73.084C257.213 73.084 256.802 72.944 256.466 72.664C256.149 72.3653 255.981 72.0013 255.962 71.572L255.906 69.864C255.253 70.9653 254.394 71.8147 253.33 72.412C252.266 72.9907 251.099 73.28 249.83 73.28ZM262.194 52.56H264.658V69.22C264.658 69.7613 264.798 70.1907 265.078 70.508C265.377 70.8067 265.788 70.956 266.31 70.956C266.516 70.956 266.758 70.928 267.038 70.872C267.318 70.7973 267.58 70.7133 267.822 70.62L268.214 72.608C267.804 72.776 267.318 72.916 266.758 73.028C266.198 73.14 265.704 73.196 265.274 73.196C264.322 73.196 263.566 72.9253 263.006 72.384C262.465 71.8427 262.194 71.0867 262.194 70.116V52.56ZM275.404 65.664C275.404 64.6373 275.582 63.6667 275.936 62.752C276.291 61.8373 276.795 61.044 277.448 60.372C278.102 59.6813 278.876 59.14 279.772 58.748C280.687 58.3373 281.704 58.132 282.824 58.132C284.28 58.132 285.531 58.4587 286.576 59.112C287.64 59.7467 288.443 60.6053 288.984 61.688L286.576 62.444C286.203 61.7533 285.68 61.2213 285.008 60.848C284.336 60.456 283.59 60.26 282.768 60.26C282.096 60.26 281.462 60.4 280.864 60.68C280.267 60.9413 279.754 61.3147 279.324 61.8C278.895 62.2853 278.55 62.8547 278.288 63.508C278.046 64.1613 277.924 64.88 277.924 65.664C277.924 66.4293 278.055 67.148 278.316 67.82C278.578 68.492 278.923 69.08 279.352 69.584C279.8 70.0693 280.314 70.452 280.892 70.732C281.49 71.012 282.124 71.152 282.796 71.152C283.226 71.152 283.646 71.096 284.056 70.984C284.486 70.8533 284.868 70.6853 285.204 70.48C285.559 70.2747 285.867 70.0413 286.128 69.78C286.39 69.5 286.576 69.2013 286.688 68.884L289.096 69.612C288.872 70.1533 288.555 70.648 288.144 71.096C287.752 71.544 287.286 71.9267 286.744 72.244C286.203 72.5613 285.596 72.8133 284.924 73C284.271 73.1867 283.58 73.28 282.852 73.28C281.751 73.28 280.743 73.0747 279.828 72.664C278.914 72.2533 278.13 71.7027 277.476 71.012C276.823 70.3213 276.31 69.5187 275.936 68.604C275.582 67.6707 275.404 66.6907 275.404 65.664ZM298.136 73.28C297.034 73.28 296.026 73.0747 295.112 72.664C294.216 72.2533 293.441 71.7027 292.788 71.012C292.153 70.3213 291.658 69.5187 291.304 68.604C290.949 67.6893 290.772 66.728 290.772 65.72C290.772 64.6933 290.949 63.7227 291.304 62.808C291.677 61.8933 292.181 61.0907 292.816 60.4C293.469 59.7093 294.244 59.1587 295.14 58.748C296.054 58.3373 297.053 58.132 298.136 58.132C299.218 58.132 300.217 58.3373 301.132 58.748C302.046 59.1587 302.821 59.7093 303.456 60.4C304.109 61.0907 304.613 61.8933 304.968 62.808C305.341 63.7227 305.528 64.6933 305.528 65.72C305.528 66.728 305.35 67.6893 304.996 68.604C304.641 69.5187 304.137 70.3213 303.484 71.012C302.83 71.7027 302.046 72.2533 301.132 72.664C300.236 73.0747 299.237 73.28 298.136 73.28ZM293.292 65.748C293.292 66.5133 293.413 67.2227 293.656 67.876C293.917 68.5293 294.262 69.0987 294.692 69.584C295.14 70.0693 295.653 70.452 296.232 70.732C296.829 71.012 297.464 71.152 298.136 71.152C298.808 71.152 299.433 71.012 300.012 70.732C300.609 70.452 301.132 70.0693 301.58 69.584C302.028 69.08 302.373 68.5013 302.616 67.848C302.877 67.176 303.008 66.4573 303.008 65.692C303.008 64.9453 302.877 64.2453 302.616 63.592C302.373 62.92 302.028 62.3413 301.58 61.856C301.132 61.352 300.609 60.96 300.012 60.68C299.433 60.4 298.808 60.26 298.136 60.26C297.464 60.26 296.829 60.4093 296.232 60.708C295.653 60.988 295.14 61.38 294.692 61.884C294.262 62.3693 293.917 62.948 293.656 63.62C293.413 64.2733 293.292 64.9827 293.292 65.748ZM321.197 73H318.733V64.824C318.733 63.256 318.491 62.1173 318.005 61.408C317.539 60.6987 316.82 60.344 315.849 60.344C315.345 60.344 314.841 60.4467 314.337 60.652C313.833 60.8387 313.357 61.1 312.909 61.436C312.461 61.772 312.069 62.1733 311.733 62.64C311.397 63.1067 311.145 63.62 310.977 64.18V73H308.513V58.384H310.753V61.52C311.332 60.4933 312.163 59.672 313.245 59.056C314.347 58.44 315.541 58.132 316.829 58.132C317.669 58.132 318.369 58.2907 318.929 58.608C319.489 58.9067 319.937 59.336 320.273 59.896C320.609 60.4373 320.843 61.0813 320.973 61.828C321.123 62.5747 321.197 63.3867 321.197 64.264V73ZM332.452 72.272C332.303 72.3467 332.107 72.44 331.864 72.552C331.622 72.6453 331.342 72.748 331.024 72.86C330.726 72.9533 330.39 73.028 330.016 73.084C329.662 73.1587 329.288 73.196 328.896 73.196C328 73.196 327.226 72.9533 326.572 72.468C325.919 71.964 325.592 71.1893 325.592 70.144V60.316H323.604V58.384H325.592V53.512H328.056V58.384H331.332V60.316H328.056V69.388C328.094 69.9293 328.271 70.3213 328.588 70.564C328.906 70.8067 329.279 70.928 329.708 70.928C330.194 70.928 330.632 70.8533 331.024 70.704C331.435 70.536 331.715 70.4053 331.864 70.312L332.452 72.272ZM342.464 60.54C341.232 60.5773 340.14 60.8947 339.188 61.492C338.255 62.0893 337.592 62.92 337.2 63.984V73H334.736V58.384H337.032V61.772C337.536 60.764 338.199 59.952 339.02 59.336C339.841 58.7013 340.719 58.3467 341.652 58.272C341.839 58.272 341.997 58.272 342.128 58.272C342.259 58.272 342.371 58.2813 342.464 58.3V60.54ZM344.908 73V58.384H347.372V73H344.908ZM344.908 55.64V52.56H347.372V55.64H344.908ZM358.865 73.28C357.726 73.28 356.69 73 355.757 72.44C354.824 71.88 354.086 71.152 353.545 70.256V73H351.361V52.56H353.825V61.296C354.441 60.344 355.197 59.5787 356.093 59C356.989 58.4213 358.034 58.132 359.229 58.132C360.237 58.132 361.142 58.3467 361.945 58.776C362.748 59.2053 363.429 59.7747 363.989 60.484C364.568 61.1747 365.006 61.9867 365.305 62.92C365.622 63.8347 365.781 64.7773 365.781 65.748C365.781 66.7747 365.604 67.7453 365.249 68.66C364.894 69.5747 364.409 70.3773 363.793 71.068C363.177 71.74 362.44 72.2813 361.581 72.692C360.741 73.084 359.836 73.28 358.865 73.28ZM358.249 71.152C358.977 71.152 359.649 71.0027 360.265 70.704C360.881 70.4053 361.413 70.004 361.861 69.5C362.309 68.996 362.654 68.4267 362.897 67.792C363.14 67.1387 363.261 66.4573 363.261 65.748C363.261 65.0387 363.14 64.3573 362.897 63.704C362.673 63.032 362.346 62.444 361.917 61.94C361.506 61.436 361.002 61.0347 360.405 60.736C359.826 60.4187 359.182 60.26 358.473 60.26C357.95 60.26 357.456 60.3533 356.989 60.54C356.522 60.7267 356.084 60.9787 355.673 61.296C355.281 61.5947 354.926 61.9493 354.609 62.36C354.31 62.7707 354.049 63.2093 353.825 63.676V67.904C353.918 68.3707 354.114 68.8 354.413 69.192C354.73 69.584 355.094 69.9293 355.505 70.228C355.934 70.508 356.382 70.732 356.849 70.9C357.334 71.068 357.801 71.152 358.249 71.152ZM373.314 73.28C371.784 73.28 370.626 72.7667 369.842 71.74C369.058 70.7133 368.666 69.1827 368.666 67.148V58.384H371.13V66.672C371.13 69.6587 372.166 71.152 374.238 71.152C375.246 71.152 376.189 70.8347 377.066 70.2C377.962 69.5467 378.625 68.66 379.054 67.54V58.384H381.518V69.976C381.518 70.5547 381.78 70.8533 382.302 70.872V73C382.022 73.0373 381.798 73.056 381.63 73.056C381.481 73.0747 381.332 73.084 381.182 73.084C380.697 73.084 380.286 72.944 379.95 72.664C379.633 72.3653 379.465 72.0013 379.446 71.572L379.39 69.864C378.737 70.9653 377.878 71.8147 376.814 72.412C375.75 72.9907 374.584 73.28 373.314 73.28ZM393.183 72.272C393.033 72.3467 392.837 72.44 392.595 72.552C392.352 72.6453 392.072 72.748 391.755 72.86C391.456 72.9533 391.12 73.028 390.747 73.084C390.392 73.1587 390.019 73.196 389.627 73.196C388.731 73.196 387.956 72.9533 387.303 72.468C386.649 71.964 386.323 71.1893 386.323 70.144V60.316H384.335V58.384H386.323V53.512H388.787V58.384H392.063V60.316H388.787V69.388C388.824 69.9293 389.001 70.3213 389.319 70.564C389.636 70.8067 390.009 70.928 390.439 70.928C390.924 70.928 391.363 70.8533 391.755 70.704C392.165 70.536 392.445 70.4053 392.595 70.312L393.183 72.272ZM395.467 73V58.384H397.931V73H395.467ZM395.467 55.64V52.56H397.931V55.64H395.467ZM408.304 73.28C407.202 73.28 406.194 73.0747 405.28 72.664C404.384 72.2533 403.609 71.7027 402.956 71.012C402.321 70.3213 401.826 69.5187 401.472 68.604C401.117 67.6893 400.94 66.728 400.94 65.72C400.94 64.6933 401.117 63.7227 401.472 62.808C401.845 61.8933 402.349 61.0907 402.984 60.4C403.637 59.7093 404.412 59.1587 405.308 58.748C406.222 58.3373 407.221 58.132 408.304 58.132C409.386 58.132 410.385 58.3373 411.3 58.748C412.214 59.1587 412.989 59.7093 413.624 60.4C414.277 61.0907 414.781 61.8933 415.136 62.808C415.509 63.7227 415.696 64.6933 415.696 65.72C415.696 66.728 415.518 67.6893 415.164 68.604C414.809 69.5187 414.305 70.3213 413.652 71.012C412.998 71.7027 412.214 72.2533 411.3 72.664C410.404 73.0747 409.405 73.28 408.304 73.28ZM403.46 65.748C403.46 66.5133 403.581 67.2227 403.824 67.876C404.085 68.5293 404.43 69.0987 404.86 69.584C405.308 70.0693 405.821 70.452 406.4 70.732C406.997 71.012 407.632 71.152 408.304 71.152C408.976 71.152 409.601 71.012 410.18 70.732C410.777 70.452 411.3 70.0693 411.748 69.584C412.196 69.08 412.541 68.5013 412.784 67.848C413.045 67.176 413.176 66.4573 413.176 65.692C413.176 64.9453 413.045 64.2453 412.784 63.592C412.541 62.92 412.196 62.3413 411.748 61.856C411.3 61.352 410.777 60.96 410.18 60.68C409.601 60.4 408.976 60.26 408.304 60.26C407.632 60.26 406.997 60.4093 406.4 60.708C405.821 60.988 405.308 61.38 404.86 61.884C404.43 62.3693 404.085 62.948 403.824 63.62C403.581 64.2733 403.46 64.9827 403.46 65.748ZM431.365 73H428.901V64.824C428.901 63.256 428.659 62.1173 428.173 61.408C427.707 60.6987 426.988 60.344 426.017 60.344C425.513 60.344 425.009 60.4467 424.505 60.652C424.001 60.8387 423.525 61.1 423.077 61.436C422.629 61.772 422.237 62.1733 421.901 62.64C421.565 63.1067 421.313 63.62 421.145 64.18V73H418.681V58.384H420.921V61.52C421.5 60.4933 422.331 59.672 423.413 59.056C424.515 58.44 425.709 58.132 426.997 58.132C427.837 58.132 428.537 58.2907 429.097 58.608C429.657 58.9067 430.105 59.336 430.441 59.896C430.777 60.4373 431.011 61.0813 431.141 61.828C431.291 62.5747 431.365 63.3867 431.365 64.264V73ZM440.321 73.28C439.145 73.28 437.988 73.1027 436.849 72.748C435.71 72.3747 434.73 71.8427 433.909 71.152L434.973 69.5C435.832 70.1533 436.69 70.648 437.549 70.984C438.408 71.3013 439.313 71.46 440.265 71.46C441.329 71.46 442.169 71.2547 442.785 70.844C443.42 70.4147 443.737 69.8173 443.737 69.052C443.737 68.6973 443.653 68.3987 443.485 68.156C443.317 67.8947 443.065 67.6707 442.729 67.484C442.393 67.2973 441.964 67.1293 441.441 66.98C440.918 66.8307 440.312 66.672 439.621 66.504C438.744 66.28 437.988 66.0653 437.353 65.86C436.718 65.6547 436.196 65.412 435.785 65.132C435.374 64.852 435.076 64.516 434.889 64.124C434.702 63.732 434.609 63.2467 434.609 62.668C434.609 61.94 434.749 61.296 435.029 60.736C435.328 60.1573 435.729 59.6813 436.233 59.308C436.737 58.916 437.325 58.6267 437.997 58.44C438.688 58.2347 439.425 58.132 440.209 58.132C441.31 58.132 442.337 58.3093 443.289 58.664C444.241 59.0187 445.044 59.4853 445.697 60.064L444.577 61.548C443.961 61.0067 443.27 60.6053 442.505 60.344C441.74 60.064 440.956 59.924 440.153 59.924C439.257 59.924 438.492 60.12 437.857 60.512C437.241 60.8853 436.933 61.492 436.933 62.332C436.933 62.668 436.989 62.948 437.101 63.172C437.232 63.396 437.437 63.592 437.717 63.76C437.997 63.928 438.352 64.0773 438.781 64.208C439.229 64.3387 439.761 64.4787 440.377 64.628C441.348 64.852 442.188 65.0853 442.897 65.328C443.625 65.552 444.222 65.8227 444.689 66.14C445.174 66.4573 445.529 66.8307 445.753 67.26C445.996 67.6893 446.117 68.212 446.117 68.828C446.117 70.1907 445.594 71.2733 444.549 72.076C443.504 72.8787 442.094 73.28 440.321 73.28ZM459.867 73.28C459.176 73.28 458.532 73.168 457.935 72.944C457.338 72.7013 456.815 72.3747 456.367 71.964C455.938 71.5533 455.592 71.0773 455.331 70.536C455.088 69.976 454.967 69.3693 454.967 68.716C454.967 68.044 455.116 67.4373 455.415 66.896C455.714 66.336 456.134 65.86 456.675 65.468C457.235 65.076 457.888 64.768 458.635 64.544C459.4 64.32 460.231 64.208 461.127 64.208C461.836 64.208 462.555 64.2733 463.283 64.404C464.011 64.5347 464.655 64.712 465.215 64.936V63.76C465.215 62.5653 464.879 61.632 464.207 60.96C463.535 60.2693 462.583 59.924 461.351 59.924C459.876 59.924 458.327 60.4933 456.703 61.632L455.891 60.036C457.776 58.7667 459.671 58.132 461.575 58.132C463.498 58.132 464.991 58.6453 466.055 59.672C467.138 60.6987 467.679 62.1453 467.679 64.012V69.976C467.679 70.5547 467.94 70.8533 468.463 70.872V73C468.202 73.0373 467.987 73.0653 467.819 73.084C467.651 73.1027 467.474 73.112 467.287 73.112C466.802 73.112 466.41 72.972 466.111 72.692C465.831 72.3933 465.663 72.0387 465.607 71.628L465.551 70.592C464.898 71.4693 464.067 72.1413 463.059 72.608C462.07 73.056 461.006 73.28 459.867 73.28ZM460.511 71.432C461.388 71.432 462.2 71.2733 462.947 70.956C463.712 70.62 464.291 70.1813 464.683 69.64C465.038 69.2853 465.215 68.9213 465.215 68.548V66.392C464.02 65.9253 462.779 65.692 461.491 65.692C460.259 65.692 459.251 65.9533 458.467 66.476C457.702 66.9987 457.319 67.68 457.319 68.52C457.319 68.9307 457.394 69.3133 457.543 69.668C457.711 70.0227 457.935 70.3307 458.215 70.592C458.514 70.8533 458.859 71.0587 459.251 71.208C459.643 71.3573 460.063 71.432 460.511 71.432ZM476.743 73.28C475.567 73.28 474.41 73.1027 473.271 72.748C472.132 72.3747 471.152 71.8427 470.331 71.152L471.395 69.5C472.254 70.1533 473.112 70.648 473.971 70.984C474.83 71.3013 475.735 71.46 476.687 71.46C477.751 71.46 478.591 71.2547 479.207 70.844C479.842 70.4147 480.159 69.8173 480.159 69.052C480.159 68.6973 480.075 68.3987 479.907 68.156C479.739 67.8947 479.487 67.6707 479.151 67.484C478.815 67.2973 478.386 67.1293 477.863 66.98C477.34 66.8307 476.734 66.672 476.043 66.504C475.166 66.28 474.41 66.0653 473.775 65.86C473.14 65.6547 472.618 65.412 472.207 65.132C471.796 64.852 471.498 64.516 471.311 64.124C471.124 63.732 471.031 63.2467 471.031 62.668C471.031 61.94 471.171 61.296 471.451 60.736C471.75 60.1573 472.151 59.6813 472.655 59.308C473.159 58.916 473.747 58.6267 474.419 58.44C475.11 58.2347 475.847 58.132 476.631 58.132C477.732 58.132 478.759 58.3093 479.711 58.664C480.663 59.0187 481.466 59.4853 482.119 60.064L480.999 61.548C480.383 61.0067 479.692 60.6053 478.927 60.344C478.162 60.064 477.378 59.924 476.575 59.924C475.679 59.924 474.914 60.12 474.279 60.512C473.663 60.8853 473.355 61.492 473.355 62.332C473.355 62.668 473.411 62.948 473.523 63.172C473.654 63.396 473.859 63.592 474.139 63.76C474.419 63.928 474.774 64.0773 475.203 64.208C475.651 64.3387 476.183 64.4787 476.799 64.628C477.77 64.852 478.61 65.0853 479.319 65.328C480.047 65.552 480.644 65.8227 481.111 66.14C481.596 66.4573 481.951 66.8307 482.175 67.26C482.418 67.6893 482.539 68.212 482.539 68.828C482.539 70.1907 482.016 71.2733 480.971 72.076C479.926 72.8787 478.516 73.28 476.743 73.28ZM496.289 73.28C495.598 73.28 494.954 73.168 494.357 72.944C493.759 72.7013 493.237 72.3747 492.789 71.964C492.359 71.5533 492.014 71.0773 491.753 70.536C491.51 69.976 491.389 69.3693 491.389 68.716C491.389 68.044 491.538 67.4373 491.837 66.896C492.135 66.336 492.555 65.86 493.097 65.468C493.657 65.076 494.31 64.768 495.057 64.544C495.822 64.32 496.653 64.208 497.549 64.208C498.258 64.208 498.977 64.2733 499.705 64.404C500.433 64.5347 501.077 64.712 501.637 64.936V63.76C501.637 62.5653 501.301 61.632 500.629 60.96C499.957 60.2693 499.005 59.924 497.773 59.924C496.298 59.924 494.749 60.4933 493.125 61.632L492.313 60.036C494.198 58.7667 496.093 58.132 497.997 58.132C499.919 58.132 501.413 58.6453 502.477 59.672C503.559 60.6987 504.101 62.1453 504.101 64.012V69.976C504.101 70.5547 504.362 70.8533 504.885 70.872V73C504.623 73.0373 504.409 73.0653 504.241 73.084C504.073 73.1027 503.895 73.112 503.709 73.112C503.223 73.112 502.831 72.972 502.533 72.692C502.253 72.3933 502.085 72.0387 502.029 71.628L501.973 70.592C501.319 71.4693 500.489 72.1413 499.481 72.608C498.491 73.056 497.427 73.28 496.289 73.28ZM496.933 71.432C497.81 71.432 498.622 71.2733 499.369 70.956C500.134 70.62 500.713 70.1813 501.105 69.64C501.459 69.2853 501.637 68.9213 501.637 68.548V66.392C500.442 65.9253 499.201 65.692 497.913 65.692C496.681 65.692 495.673 65.9533 494.889 66.476C494.123 66.9987 493.741 67.68 493.741 68.52C493.741 68.9307 493.815 69.3133 493.965 69.668C494.133 70.0227 494.357 70.3307 494.637 70.592C494.935 70.8533 495.281 71.0587 495.673 71.208C496.065 71.3573 496.485 71.432 496.933 71.432ZM520.247 73.28C519.071 73.28 517.913 73.1027 516.775 72.748C515.636 72.3747 514.656 71.8427 513.835 71.152L514.899 69.5C515.757 70.1533 516.616 70.648 517.475 70.984C518.333 71.3013 519.239 71.46 520.191 71.46C521.255 71.46 522.095 71.2547 522.711 70.844C523.345 70.4147 523.663 69.8173 523.663 69.052C523.663 68.6973 523.579 68.3987 523.411 68.156C523.243 67.8947 522.991 67.6707 522.655 67.484C522.319 67.2973 521.889 67.1293 521.367 66.98C520.844 66.8307 520.237 66.672 519.547 66.504C518.669 66.28 517.913 66.0653 517.279 65.86C516.644 65.6547 516.121 65.412 515.711 65.132C515.3 64.852 515.001 64.516 514.815 64.124C514.628 63.732 514.535 63.2467 514.535 62.668C514.535 61.94 514.675 61.296 514.955 60.736C515.253 60.1573 515.655 59.6813 516.159 59.308C516.663 58.916 517.251 58.6267 517.923 58.44C518.613 58.2347 519.351 58.132 520.135 58.132C521.236 58.132 522.263 58.3093 523.215 58.664C524.167 59.0187 524.969 59.4853 525.623 60.064L524.503 61.548C523.887 61.0067 523.196 60.6053 522.431 60.344C521.665 60.064 520.881 59.924 520.079 59.924C519.183 59.924 518.417 60.12 517.783 60.512C517.167 60.8853 516.859 61.492 516.859 62.332C516.859 62.668 516.915 62.948 517.027 63.172C517.157 63.396 517.363 63.592 517.643 63.76C517.923 63.928 518.277 64.0773 518.707 64.208C519.155 64.3387 519.687 64.4787 520.303 64.628C521.273 64.852 522.113 65.0853 522.823 65.328C523.551 65.552 524.148 65.8227 524.615 66.14C525.1 66.4573 525.455 66.8307 525.679 67.26C525.921 67.6893 526.043 68.212 526.043 68.828C526.043 70.1907 525.52 71.2733 524.475 72.076C523.429 72.8787 522.02 73.28 520.247 73.28ZM535.343 73.28C534.241 73.28 533.233 73.0747 532.319 72.664C531.423 72.2533 530.648 71.7027 529.995 71.012C529.36 70.3213 528.865 69.5187 528.511 68.604C528.156 67.6893 527.979 66.728 527.979 65.72C527.979 64.6933 528.156 63.7227 528.511 62.808C528.884 61.8933 529.388 61.0907 530.023 60.4C530.676 59.7093 531.451 59.1587 532.347 58.748C533.261 58.3373 534.26 58.132 535.343 58.132C536.425 58.132 537.424 58.3373 538.339 58.748C539.253 59.1587 540.028 59.7093 540.663 60.4C541.316 61.0907 541.82 61.8933 542.175 62.808C542.548 63.7227 542.735 64.6933 542.735 65.72C542.735 66.728 542.557 67.6893 542.203 68.604C541.848 69.5187 541.344 70.3213 540.691 71.012C540.037 71.7027 539.253 72.2533 538.339 72.664C537.443 73.0747 536.444 73.28 535.343 73.28ZM530.499 65.748C530.499 66.5133 530.62 67.2227 530.863 67.876C531.124 68.5293 531.469 69.0987 531.899 69.584C532.347 70.0693 532.86 70.452 533.439 70.732C534.036 71.012 534.671 71.152 535.343 71.152C536.015 71.152 536.64 71.012 537.219 70.732C537.816 70.452 538.339 70.0693 538.787 69.584C539.235 69.08 539.58 68.5013 539.823 67.848C540.084 67.176 540.215 66.4573 540.215 65.692C540.215 64.9453 540.084 64.2453 539.823 63.592C539.58 62.92 539.235 62.3413 538.787 61.856C538.339 61.352 537.816 60.96 537.219 60.68C536.64 60.4 536.015 60.26 535.343 60.26C534.671 60.26 534.036 60.4093 533.439 60.708C532.86 60.988 532.347 61.38 531.899 61.884C531.469 62.3693 531.124 62.948 530.863 63.62C530.62 64.2733 530.499 64.9827 530.499 65.748ZM546.258 73V60.316H544.27V58.384H546.258V58.076C546.258 56.2653 546.66 54.8467 547.462 53.82C548.265 52.7933 549.357 52.28 550.738 52.28C551.317 52.28 551.886 52.364 552.446 52.532C553.006 52.6813 553.51 52.896 553.958 53.176L553.342 54.996C553.081 54.8093 552.754 54.66 552.362 54.548C551.989 54.436 551.616 54.38 551.242 54.38C550.421 54.38 549.796 54.688 549.366 55.304C548.937 55.92 548.722 56.816 548.722 57.992V58.384H552.614V60.316H548.722V73H546.258ZM562.632 72.272C562.483 72.3467 562.287 72.44 562.044 72.552C561.801 72.6453 561.521 72.748 561.204 72.86C560.905 72.9533 560.569 73.028 560.196 73.084C559.841 73.1587 559.468 73.196 559.076 73.196C558.18 73.196 557.405 72.9533 556.752 72.468C556.099 71.964 555.772 71.1893 555.772 70.144V60.316H553.784V58.384H555.772V53.512H558.236V58.384H561.512V60.316H558.236V69.388C558.273 69.9293 558.451 70.3213 558.768 70.564C559.085 70.8067 559.459 70.928 559.888 70.928C560.373 70.928 560.812 70.8533 561.204 70.704C561.615 70.536 561.895 70.4053 562.044 70.312L562.632 72.272ZM583.228 58.384H585.608L579.392 73H577.348L574.408 65.86L571.496 73H569.452L563.236 58.384H565.588L570.628 70.564L573.092 64.488L570.572 58.412H572.616L574.408 63.088L576.2 58.412H578.244L575.752 64.488L578.216 70.564L583.228 58.384ZM591.308 73.28C590.618 73.28 589.974 73.168 589.376 72.944C588.779 72.7013 588.256 72.3747 587.808 71.964C587.379 71.5533 587.034 71.0773 586.772 70.536C586.53 69.976 586.408 69.3693 586.408 68.716C586.408 68.044 586.558 67.4373 586.856 66.896C587.155 66.336 587.575 65.86 588.116 65.468C588.676 65.076 589.33 64.768 590.076 64.544C590.842 64.32 591.672 64.208 592.568 64.208C593.278 64.208 593.996 64.2733 594.724 64.404C595.452 64.5347 596.096 64.712 596.656 64.936V63.76C596.656 62.5653 596.32 61.632 595.648 60.96C594.976 60.2693 594.024 59.924 592.792 59.924C591.318 59.924 589.768 60.4933 588.144 61.632L587.332 60.036C589.218 58.7667 591.112 58.132 593.016 58.132C594.939 58.132 596.432 58.6453 597.496 59.672C598.579 60.6987 599.12 62.1453 599.12 64.012V69.976C599.12 70.5547 599.382 70.8533 599.904 70.872V73C599.643 73.0373 599.428 73.0653 599.26 73.084C599.092 73.1027 598.915 73.112 598.728 73.112C598.243 73.112 597.851 72.972 597.552 72.692C597.272 72.3933 597.104 72.0387 597.048 71.628L596.992 70.592C596.339 71.4693 595.508 72.1413 594.5 72.608C593.511 73.056 592.447 73.28 591.308 73.28ZM591.952 71.432C592.83 71.432 593.642 71.2733 594.388 70.956C595.154 70.62 595.732 70.1813 596.124 69.64C596.479 69.2853 596.656 68.9213 596.656 68.548V66.392C595.462 65.9253 594.22 65.692 592.932 65.692C591.7 65.692 590.692 65.9533 589.908 66.476C589.143 66.9987 588.76 67.68 588.76 68.52C588.76 68.9307 588.835 69.3133 588.984 69.668C589.152 70.0227 589.376 70.3307 589.656 70.592C589.955 70.8533 590.3 71.0587 590.692 71.208C591.084 71.3573 591.504 71.432 591.952 71.432ZM610.788 60.54C609.556 60.5773 608.464 60.8947 607.512 61.492C606.579 62.0893 605.916 62.92 605.524 63.984V73H603.06V58.384H605.356V61.772C605.86 60.764 606.523 59.952 607.344 59.336C608.166 58.7013 609.043 58.3467 609.976 58.272C610.163 58.272 610.322 58.272 610.452 58.272C610.583 58.272 610.695 58.2813 610.788 58.3V60.54ZM619.372 73.28C618.271 73.28 617.263 73.084 616.348 72.692C615.433 72.2813 614.649 71.7307 613.996 71.04C613.343 70.3493 612.829 69.5467 612.456 68.632C612.101 67.6987 611.924 66.7187 611.924 65.692C611.924 64.6653 612.101 63.6947 612.456 62.78C612.829 61.8653 613.343 61.0627 613.996 60.372C614.668 59.6813 615.461 59.14 616.376 58.748C617.291 58.3373 618.299 58.132 619.4 58.132C620.501 58.132 621.5 58.3373 622.396 58.748C623.311 59.1587 624.085 59.7093 624.72 60.4C625.355 61.072 625.84 61.8653 626.176 62.78C626.531 63.676 626.708 64.6093 626.708 65.58C626.708 65.7853 626.699 65.972 626.68 66.14C626.68 66.308 626.671 66.4387 626.652 66.532H614.528C614.584 67.26 614.752 67.9227 615.032 68.52C615.312 69.1173 615.676 69.6307 616.124 70.06C616.572 70.4893 617.076 70.8253 617.636 71.068C618.215 71.3107 618.821 71.432 619.456 71.432C619.904 71.432 620.343 71.376 620.772 71.264C621.201 71.1333 621.603 70.9653 621.976 70.76C622.349 70.5547 622.676 70.3027 622.956 70.004C623.255 69.7053 623.479 69.3693 623.628 68.996L625.756 69.584C625.513 70.1253 625.177 70.62 624.748 71.068C624.337 71.516 623.852 71.908 623.292 72.244C622.751 72.5613 622.144 72.8133 621.472 73C620.8 73.1867 620.1 73.28 619.372 73.28ZM624.384 64.712C624.328 64.0213 624.151 63.3867 623.852 62.808C623.572 62.2107 623.208 61.7067 622.76 61.296C622.331 60.8853 621.827 60.568 621.248 60.344C620.669 60.1013 620.053 59.98 619.4 59.98C618.747 59.98 618.131 60.1013 617.552 60.344C616.973 60.568 616.46 60.8947 616.012 61.324C615.583 61.7347 615.228 62.2293 614.948 62.808C614.687 63.3867 614.528 64.0213 614.472 64.712H624.384ZM165.835 106.28C164.734 106.28 163.726 106.084 162.811 105.692C161.896 105.281 161.112 104.731 160.459 104.04C159.806 103.349 159.292 102.547 158.919 101.632C158.564 100.699 158.387 99.7187 158.387 98.692C158.387 97.6653 158.564 96.6947 158.919 95.78C159.292 94.8653 159.806 94.0627 160.459 93.372C161.131 92.6813 161.924 92.14 162.839 91.748C163.754 91.3373 164.762 91.132 165.863 91.132C166.964 91.132 167.963 91.3373 168.859 91.748C169.774 92.1587 170.548 92.7093 171.183 93.4C171.818 94.072 172.303 94.8653 172.639 95.78C172.994 96.676 173.171 97.6093 173.171 98.58C173.171 98.7853 173.162 98.972 173.143 99.14C173.143 99.308 173.134 99.4387 173.115 99.532H160.991C161.047 100.26 161.215 100.923 161.495 101.52C161.775 102.117 162.139 102.631 162.587 103.06C163.035 103.489 163.539 103.825 164.099 104.068C164.678 104.311 165.284 104.432 165.919 104.432C166.367 104.432 166.806 104.376 167.235 104.264C167.664 104.133 168.066 103.965 168.439 103.76C168.812 103.555 169.139 103.303 169.419 103.004C169.718 102.705 169.942 102.369 170.091 101.996L172.219 102.584C171.976 103.125 171.64 103.62 171.211 104.068C170.8 104.516 170.315 104.908 169.755 105.244C169.214 105.561 168.607 105.813 167.935 106C167.263 106.187 166.563 106.28 165.835 106.28ZM170.847 97.712C170.791 97.0213 170.614 96.3867 170.315 95.808C170.035 95.2107 169.671 94.7067 169.223 94.296C168.794 93.8853 168.29 93.568 167.711 93.344C167.132 93.1013 166.516 92.98 165.863 92.98C165.21 92.98 164.594 93.1013 164.015 93.344C163.436 93.568 162.923 93.8947 162.475 94.324C162.046 94.7347 161.691 95.2293 161.411 95.808C161.15 96.3867 160.991 97.0213 160.935 97.712H170.847ZM188.594 106H186.13V97.824C186.13 96.256 185.887 95.1173 185.402 94.408C184.935 93.6987 184.217 93.344 183.246 93.344C182.742 93.344 182.238 93.4467 181.734 93.652C181.23 93.8387 180.754 94.1 180.306 94.436C179.858 94.772 179.466 95.1733 179.13 95.64C178.794 96.1067 178.542 96.62 178.374 97.18V106H175.91V91.384H178.15V94.52C178.729 93.4933 179.559 92.672 180.642 92.056C181.743 91.44 182.938 91.132 184.226 91.132C185.066 91.132 185.766 91.2907 186.326 91.608C186.886 91.9067 187.334 92.336 187.67 92.896C188.006 93.4373 188.239 94.0813 188.37 94.828C188.519 95.5747 188.594 96.3867 188.594 97.264V106ZM198.25 106.168C197.26 106.168 196.346 105.963 195.506 105.552C194.684 105.141 193.975 104.591 193.378 103.9C192.78 103.209 192.314 102.416 191.978 101.52C191.66 100.624 191.502 99.6907 191.502 98.72C191.502 97.6933 191.66 96.7227 191.978 95.808C192.314 94.8747 192.78 94.0627 193.378 93.372C193.975 92.6813 194.684 92.14 195.506 91.748C196.346 91.3373 197.27 91.132 198.278 91.132C199.51 91.132 200.574 91.4307 201.47 92.028C202.366 92.6253 203.122 93.3813 203.738 94.296V91.384H205.922V105.832C205.922 106.877 205.726 107.792 205.334 108.576C204.942 109.379 204.41 110.051 203.738 110.592C203.066 111.133 202.272 111.544 201.358 111.824C200.462 112.104 199.5 112.244 198.474 112.244C196.812 112.244 195.459 111.955 194.414 111.376C193.387 110.816 192.528 110.032 191.838 109.024L193.266 107.764C193.844 108.623 194.591 109.267 195.506 109.696C196.42 110.125 197.41 110.34 198.474 110.34C199.146 110.34 199.78 110.247 200.378 110.06C200.994 109.873 201.526 109.593 201.974 109.22C202.422 108.847 202.776 108.38 203.038 107.82C203.318 107.26 203.458 106.597 203.458 105.832V103.256C203.178 103.704 202.842 104.115 202.45 104.488C202.076 104.843 201.666 105.151 201.218 105.412C200.77 105.655 200.294 105.841 199.79 105.972C199.286 106.103 198.772 106.168 198.25 106.168ZM199.006 104.152C199.528 104.152 200.032 104.059 200.518 103.872C201.003 103.685 201.451 103.443 201.862 103.144C202.272 102.827 202.618 102.472 202.898 102.08C203.178 101.688 203.364 101.287 203.458 100.876V96.676C203.252 96.172 202.982 95.7147 202.646 95.304C202.328 94.8933 201.964 94.5387 201.554 94.24C201.143 93.9227 200.695 93.68 200.21 93.512C199.743 93.344 199.267 93.26 198.782 93.26C198.035 93.26 197.363 93.4187 196.766 93.736C196.187 94.0533 195.692 94.4733 195.282 94.996C194.871 95.5187 194.554 96.116 194.33 96.788C194.106 97.4413 193.994 98.104 193.994 98.776C193.994 99.504 194.124 100.195 194.386 100.848C194.647 101.501 195.002 102.071 195.45 102.556C195.898 103.041 196.42 103.433 197.018 103.732C197.634 104.012 198.296 104.152 199.006 104.152ZM209.898 106V91.384H212.362V106H209.898ZM209.898 88.64V85.56H212.362V88.64H209.898ZM229.035 106H226.571V97.824C226.571 96.256 226.329 95.1173 225.843 94.408C225.377 93.6987 224.658 93.344 223.687 93.344C223.183 93.344 222.679 93.4467 222.175 93.652C221.671 93.8387 221.195 94.1 220.747 94.436C220.299 94.772 219.907 95.1733 219.571 95.64C219.235 96.1067 218.983 96.62 218.815 97.18V106H216.351V91.384H218.591V94.52C219.17 93.4933 220.001 92.672 221.083 92.056C222.185 91.44 223.379 91.132 224.667 91.132C225.507 91.132 226.207 91.2907 226.767 91.608C227.327 91.9067 227.775 92.336 228.111 92.896C228.447 93.4373 228.681 94.0813 228.811 94.828C228.961 95.5747 229.035 96.3867 229.035 97.264V106ZM239.335 106.28C238.234 106.28 237.226 106.084 236.311 105.692C235.396 105.281 234.612 104.731 233.959 104.04C233.306 103.349 232.792 102.547 232.419 101.632C232.064 100.699 231.887 99.7187 231.887 98.692C231.887 97.6653 232.064 96.6947 232.419 95.78C232.792 94.8653 233.306 94.0627 233.959 93.372C234.631 92.6813 235.424 92.14 236.339 91.748C237.254 91.3373 238.262 91.132 239.363 91.132C240.464 91.132 241.463 91.3373 242.359 91.748C243.274 92.1587 244.048 92.7093 244.683 93.4C245.318 94.072 245.803 94.8653 246.139 95.78C246.494 96.676 246.671 97.6093 246.671 98.58C246.671 98.7853 246.662 98.972 246.643 99.14C246.643 99.308 246.634 99.4387 246.615 99.532H234.491C234.547 100.26 234.715 100.923 234.995 101.52C235.275 102.117 235.639 102.631 236.087 103.06C236.535 103.489 237.039 103.825 237.599 104.068C238.178 104.311 238.784 104.432 239.419 104.432C239.867 104.432 240.306 104.376 240.735 104.264C241.164 104.133 241.566 103.965 241.939 103.76C242.312 103.555 242.639 103.303 242.919 103.004C243.218 102.705 243.442 102.369 243.591 101.996L245.719 102.584C245.476 103.125 245.14 103.62 244.711 104.068C244.3 104.516 243.815 104.908 243.255 105.244C242.714 105.561 242.107 105.813 241.435 106C240.763 106.187 240.063 106.28 239.335 106.28ZM244.347 97.712C244.291 97.0213 244.114 96.3867 243.815 95.808C243.535 95.2107 243.171 94.7067 242.723 94.296C242.294 93.8853 241.79 93.568 241.211 93.344C240.632 93.1013 240.016 92.98 239.363 92.98C238.71 92.98 238.094 93.1013 237.515 93.344C236.936 93.568 236.423 93.8947 235.975 94.324C235.546 94.7347 235.191 95.2293 234.911 95.808C234.65 96.3867 234.491 97.0213 234.435 97.712H244.347ZM255.878 106.28C254.777 106.28 253.769 106.084 252.854 105.692C251.939 105.281 251.155 104.731 250.502 104.04C249.849 103.349 249.335 102.547 248.962 101.632C248.607 100.699 248.43 99.7187 248.43 98.692C248.43 97.6653 248.607 96.6947 248.962 95.78C249.335 94.8653 249.849 94.0627 250.502 93.372C251.174 92.6813 251.967 92.14 252.882 91.748C253.797 91.3373 254.805 91.132 255.906 91.132C257.007 91.132 258.006 91.3373 258.902 91.748C259.817 92.1587 260.591 92.7093 261.226 93.4C261.861 94.072 262.346 94.8653 262.682 95.78C263.037 96.676 263.214 97.6093 263.214 98.58C263.214 98.7853 263.205 98.972 263.186 99.14C263.186 99.308 263.177 99.4387 263.158 99.532H251.034C251.09 100.26 251.258 100.923 251.538 101.52C251.818 102.117 252.182 102.631 252.63 103.06C253.078 103.489 253.582 103.825 254.142 104.068C254.721 104.311 255.327 104.432 255.962 104.432C256.41 104.432 256.849 104.376 257.278 104.264C257.707 104.133 258.109 103.965 258.482 103.76C258.855 103.555 259.182 103.303 259.462 103.004C259.761 102.705 259.985 102.369 260.134 101.996L262.262 102.584C262.019 103.125 261.683 103.62 261.254 104.068C260.843 104.516 260.358 104.908 259.798 105.244C259.257 105.561 258.65 105.813 257.978 106C257.306 106.187 256.606 106.28 255.878 106.28ZM260.89 97.712C260.834 97.0213 260.657 96.3867 260.358 95.808C260.078 95.2107 259.714 94.7067 259.266 94.296C258.837 93.8853 258.333 93.568 257.754 93.344C257.175 93.1013 256.559 92.98 255.906 92.98C255.253 92.98 254.637 93.1013 254.058 93.344C253.479 93.568 252.966 93.8947 252.518 94.324C252.089 94.7347 251.734 95.2293 251.454 95.808C251.193 96.3867 251.034 97.0213 250.978 97.712H260.89ZM273.681 93.54C272.449 93.5773 271.357 93.8947 270.405 94.492C269.472 95.0893 268.809 95.92 268.417 96.984V106H265.953V91.384H268.249V94.772C268.753 93.764 269.416 92.952 270.237 92.336C271.058 91.7013 271.936 91.3467 272.869 91.272C273.056 91.272 273.214 91.272 273.345 91.272C273.476 91.272 273.588 91.2813 273.681 91.3V93.54ZM282.551 106V91.384H285.015V106H282.551ZM282.551 88.64V85.56H285.015V88.64H282.551ZM301.688 106H299.224V97.824C299.224 96.256 298.981 95.1173 298.496 94.408C298.029 93.6987 297.31 93.344 296.34 93.344C295.836 93.344 295.332 93.4467 294.828 93.652C294.324 93.8387 293.848 94.1 293.4 94.436C292.952 94.772 292.56 95.1733 292.224 95.64C291.888 96.1067 291.636 96.62 291.468 97.18V106H289.004V91.384H291.244V94.52C291.822 93.4933 292.653 92.672 293.736 92.056C294.837 91.44 296.032 91.132 297.32 91.132C298.16 91.132 298.86 91.2907 299.42 91.608C299.98 91.9067 300.428 92.336 300.764 92.896C301.1 93.4373 301.333 94.0813 301.464 94.828C301.613 95.5747 301.688 96.3867 301.688 97.264V106ZM316.353 106.28C315.663 106.28 315.019 106.168 314.421 105.944C313.824 105.701 313.301 105.375 312.853 104.964C312.424 104.553 312.079 104.077 311.817 103.536C311.575 102.976 311.453 102.369 311.453 101.716C311.453 101.044 311.603 100.437 311.901 99.896C312.2 99.336 312.62 98.86 313.161 98.468C313.721 98.076 314.375 97.768 315.121 97.544C315.887 97.32 316.717 97.208 317.613 97.208C318.323 97.208 319.041 97.2733 319.769 97.404C320.497 97.5347 321.141 97.712 321.701 97.936V96.76C321.701 95.5653 321.365 94.632 320.693 93.96C320.021 93.2693 319.069 92.924 317.837 92.924C316.363 92.924 314.813 93.4933 313.189 94.632L312.377 93.036C314.263 91.7667 316.157 91.132 318.061 91.132C319.984 91.132 321.477 91.6453 322.541 92.672C323.624 93.6987 324.165 95.1453 324.165 97.012V102.976C324.165 103.555 324.427 103.853 324.949 103.872V106C324.688 106.037 324.473 106.065 324.305 106.084C324.137 106.103 323.96 106.112 323.773 106.112C323.288 106.112 322.896 105.972 322.597 105.692C322.317 105.393 322.149 105.039 322.093 104.628L322.037 103.592C321.384 104.469 320.553 105.141 319.545 105.608C318.556 106.056 317.492 106.28 316.353 106.28ZM316.997 104.432C317.875 104.432 318.687 104.273 319.433 103.956C320.199 103.62 320.777 103.181 321.169 102.64C321.524 102.285 321.701 101.921 321.701 101.548V99.392C320.507 98.9253 319.265 98.692 317.977 98.692C316.745 98.692 315.737 98.9533 314.953 99.476C314.188 99.9987 313.805 100.68 313.805 101.52C313.805 101.931 313.88 102.313 314.029 102.668C314.197 103.023 314.421 103.331 314.701 103.592C315 103.853 315.345 104.059 315.737 104.208C316.129 104.357 316.549 104.432 316.997 104.432ZM335.971 106V93.316H333.983V91.384H335.971V91.076C335.971 89.2653 336.373 87.8467 337.175 86.82C337.978 85.7933 339.07 85.28 340.451 85.28C341.03 85.28 341.599 85.364 342.159 85.532C342.719 85.6813 343.223 85.896 343.671 86.176L343.055 87.996C342.794 87.8093 342.467 87.66 342.075 87.548C341.702 87.436 341.329 87.38 340.955 87.38C340.134 87.38 339.509 87.688 339.079 88.304C338.65 88.92 338.435 89.816 338.435 90.992V91.384H342.327V93.316H338.435V106H335.971ZM349.293 106.28C347.762 106.28 346.605 105.767 345.821 104.74C345.037 103.713 344.645 102.183 344.645 100.148V91.384H347.109V99.672C347.109 102.659 348.145 104.152 350.217 104.152C351.225 104.152 352.168 103.835 353.045 103.2C353.941 102.547 354.604 101.66 355.033 100.54V91.384H357.497V102.976C357.497 103.555 357.758 103.853 358.281 103.872V106C358.001 106.037 357.777 106.056 357.609 106.056C357.46 106.075 357.31 106.084 357.161 106.084C356.676 106.084 356.265 105.944 355.929 105.664C355.612 105.365 355.444 105.001 355.425 104.572L355.369 102.864C354.716 103.965 353.857 104.815 352.793 105.412C351.729 105.991 350.562 106.28 349.293 106.28ZM361.657 85.56H364.121V102.22C364.121 102.761 364.261 103.191 364.541 103.508C364.84 103.807 365.251 103.956 365.773 103.956C365.979 103.956 366.221 103.928 366.501 103.872C366.781 103.797 367.043 103.713 367.285 103.62L367.677 105.608C367.267 105.776 366.781 105.916 366.221 106.028C365.661 106.14 365.167 106.196 364.737 106.196C363.785 106.196 363.029 105.925 362.469 105.384C361.928 104.843 361.657 104.087 361.657 103.116V85.56ZM369.669 85.56H372.133V102.22C372.133 102.761 372.273 103.191 372.553 103.508C372.852 103.807 373.262 103.956 373.785 103.956C373.99 103.956 374.233 103.928 374.513 103.872C374.793 103.797 375.054 103.713 375.297 103.62L375.689 105.608C375.278 105.776 374.793 105.916 374.233 106.028C373.673 106.14 373.178 106.196 372.749 106.196C371.797 106.196 371.041 105.925 370.481 105.384C369.94 104.843 369.669 104.087 369.669 103.116V85.56ZM376.964 99.476V97.236H385.224V99.476H376.964ZM396.56 105.272C396.41 105.347 396.214 105.44 395.972 105.552C395.729 105.645 395.449 105.748 395.132 105.86C394.833 105.953 394.497 106.028 394.124 106.084C393.769 106.159 393.396 106.196 393.004 106.196C392.108 106.196 391.333 105.953 390.68 105.468C390.026 104.964 389.7 104.189 389.7 103.144V93.316H387.712V91.384H389.7V86.512H392.164V91.384H395.44V93.316H392.164V102.388C392.201 102.929 392.378 103.321 392.696 103.564C393.013 103.807 393.386 103.928 393.816 103.928C394.301 103.928 394.74 103.853 395.132 103.704C395.542 103.536 395.822 103.405 395.972 103.312L396.56 105.272ZM398.843 106V91.384H401.307V106H398.843ZM398.843 88.64V85.56H401.307V88.64H398.843ZM427.333 106H424.869V97.824C424.869 96.2933 424.617 95.164 424.113 94.436C423.627 93.708 422.899 93.344 421.929 93.344C420.921 93.344 420.015 93.708 419.213 94.436C418.429 95.1453 417.869 96.0693 417.533 97.208V106H415.069V97.824C415.069 96.256 414.826 95.1173 414.341 94.408C413.855 93.6987 413.127 93.344 412.157 93.344C411.167 93.344 410.271 93.6987 409.469 94.408C408.666 95.0987 408.097 96.0227 407.761 97.18V106H405.297V91.384H407.537V94.52C408.134 93.4373 408.909 92.6067 409.861 92.028C410.813 91.4307 411.886 91.132 413.081 91.132C414.313 91.132 415.283 91.468 415.993 92.14C416.721 92.7933 417.169 93.6427 417.337 94.688C418.643 92.3173 420.501 91.132 422.909 91.132C423.749 91.132 424.449 91.2907 425.009 91.608C425.587 91.9067 426.045 92.336 426.381 92.896C426.717 93.4373 426.959 94.0813 427.109 94.828C427.258 95.5747 427.333 96.3867 427.333 97.264V106ZM437.632 106.28C436.53 106.28 435.522 106.084 434.608 105.692C433.693 105.281 432.909 104.731 432.256 104.04C431.602 103.349 431.089 102.547 430.716 101.632C430.361 100.699 430.184 99.7187 430.184 98.692C430.184 97.6653 430.361 96.6947 430.716 95.78C431.089 94.8653 431.602 94.0627 432.256 93.372C432.928 92.6813 433.721 92.14 434.636 91.748C435.55 91.3373 436.558 91.132 437.66 91.132C438.761 91.132 439.76 91.3373 440.656 91.748C441.57 92.1587 442.345 92.7093 442.98 93.4C443.614 94.072 444.1 94.8653 444.436 95.78C444.79 96.676 444.968 97.6093 444.968 98.58C444.968 98.7853 444.958 98.972 444.94 99.14C444.94 99.308 444.93 99.4387 444.912 99.532H432.788C432.844 100.26 433.012 100.923 433.292 101.52C433.572 102.117 433.936 102.631 434.384 103.06C434.832 103.489 435.336 103.825 435.896 104.068C436.474 104.311 437.081 104.432 437.716 104.432C438.164 104.432 438.602 104.376 439.032 104.264C439.461 104.133 439.862 103.965 440.236 103.76C440.609 103.555 440.936 103.303 441.216 103.004C441.514 102.705 441.738 102.369 441.888 101.996L444.016 102.584C443.773 103.125 443.437 103.62 443.008 104.068C442.597 104.516 442.112 104.908 441.552 105.244C441.01 105.561 440.404 105.813 439.732 106C439.06 106.187 438.36 106.28 437.632 106.28ZM442.644 97.712C442.588 97.0213 442.41 96.3867 442.112 95.808C441.832 95.2107 441.468 94.7067 441.02 94.296C440.59 93.8853 440.086 93.568 439.508 93.344C438.929 93.1013 438.313 92.98 437.66 92.98C437.006 92.98 436.39 93.1013 435.812 93.344C435.233 93.568 434.72 93.8947 434.272 94.324C433.842 94.7347 433.488 95.2293 433.208 95.808C432.946 96.3867 432.788 97.0213 432.732 97.712H442.644ZM462.517 93.54C461.285 93.5773 460.193 93.8947 459.241 94.492C458.307 95.0893 457.645 95.92 457.253 96.984V106H454.789V91.384H457.085V94.772C457.589 93.764 458.251 92.952 459.073 92.336C459.894 91.7013 460.771 91.3467 461.705 91.272C461.891 91.272 462.05 91.272 462.181 91.272C462.311 91.272 462.423 91.2813 462.517 91.3V93.54ZM471.017 106.28C469.915 106.28 468.907 106.075 467.993 105.664C467.097 105.253 466.322 104.703 465.669 104.012C465.034 103.321 464.539 102.519 464.185 101.604C463.83 100.689 463.653 99.728 463.653 98.72C463.653 97.6933 463.83 96.7227 464.185 95.808C464.558 94.8933 465.062 94.0907 465.697 93.4C466.35 92.7093 467.125 92.1587 468.021 91.748C468.935 91.3373 469.934 91.132 471.017 91.132C472.099 91.132 473.098 91.3373 474.013 91.748C474.927 92.1587 475.702 92.7093 476.337 93.4C476.99 94.0907 477.494 94.8933 477.849 95.808C478.222 96.7227 478.409 97.6933 478.409 98.72C478.409 99.728 478.231 100.689 477.877 101.604C477.522 102.519 477.018 103.321 476.365 104.012C475.711 104.703 474.927 105.253 474.013 105.664C473.117 106.075 472.118 106.28 471.017 106.28ZM466.173 98.748C466.173 99.5133 466.294 100.223 466.537 100.876C466.798 101.529 467.143 102.099 467.573 102.584C468.021 103.069 468.534 103.452 469.113 103.732C469.71 104.012 470.345 104.152 471.017 104.152C471.689 104.152 472.314 104.012 472.893 103.732C473.49 103.452 474.013 103.069 474.461 102.584C474.909 102.08 475.254 101.501 475.497 100.848C475.758 100.176 475.889 99.4573 475.889 98.692C475.889 97.9453 475.758 97.2453 475.497 96.592C475.254 95.92 474.909 95.3413 474.461 94.856C474.013 94.352 473.49 93.96 472.893 93.68C472.314 93.4 471.689 93.26 471.017 93.26C470.345 93.26 469.71 93.4093 469.113 93.708C468.534 93.988 468.021 94.38 467.573 94.884C467.143 95.3693 466.798 95.948 466.537 96.62C466.294 97.2733 466.173 97.9827 466.173 98.748ZM481.45 85.56H483.914V102.22C483.914 102.761 484.054 103.191 484.334 103.508C484.633 103.807 485.044 103.956 485.566 103.956C485.772 103.956 486.014 103.928 486.294 103.872C486.574 103.797 486.836 103.713 487.078 103.62L487.47 105.608C487.06 105.776 486.574 105.916 486.014 106.028C485.454 106.14 484.96 106.196 484.53 106.196C483.578 106.196 482.822 105.925 482.262 105.384C481.721 104.843 481.45 104.087 481.45 103.116V85.56ZM495.874 106.28C494.773 106.28 493.765 106.084 492.85 105.692C491.935 105.281 491.151 104.731 490.498 104.04C489.845 103.349 489.331 102.547 488.958 101.632C488.603 100.699 488.426 99.7187 488.426 98.692C488.426 97.6653 488.603 96.6947 488.958 95.78C489.331 94.8653 489.845 94.0627 490.498 93.372C491.17 92.6813 491.963 92.14 492.878 91.748C493.793 91.3373 494.801 91.132 495.902 91.132C497.003 91.132 498.002 91.3373 498.898 91.748C499.813 92.1587 500.587 92.7093 501.222 93.4C501.857 94.072 502.342 94.8653 502.678 95.78C503.033 96.676 503.21 97.6093 503.21 98.58C503.21 98.7853 503.201 98.972 503.182 99.14C503.182 99.308 503.173 99.4387 503.154 99.532H491.03C491.086 100.26 491.254 100.923 491.534 101.52C491.814 102.117 492.178 102.631 492.626 103.06C493.074 103.489 493.578 103.825 494.138 104.068C494.717 104.311 495.323 104.432 495.958 104.432C496.406 104.432 496.845 104.376 497.274 104.264C497.703 104.133 498.105 103.965 498.478 103.76C498.851 103.555 499.178 103.303 499.458 103.004C499.757 102.705 499.981 102.369 500.13 101.996L502.258 102.584C502.015 103.125 501.679 103.62 501.25 104.068C500.839 104.516 500.354 104.908 499.794 105.244C499.253 105.561 498.646 105.813 497.974 106C497.302 106.187 496.602 106.28 495.874 106.28ZM500.886 97.712C500.83 97.0213 500.653 96.3867 500.354 95.808C500.074 95.2107 499.71 94.7067 499.262 94.296C498.833 93.8853 498.329 93.568 497.75 93.344C497.171 93.1013 496.555 92.98 495.902 92.98C495.249 92.98 494.633 93.1013 494.054 93.344C493.475 93.568 492.962 93.8947 492.514 94.324C492.085 94.7347 491.73 95.2293 491.45 95.808C491.189 96.3867 491.03 97.0213 490.974 97.712H500.886ZM505.753 106V102.864H507.825V106H505.753Z" fill="white"/>
<path d="M290.862 302.964C293.04 305.137 296.569 305.137 298.747 302.964L302.688 299.032C304.866 296.859 304.866 293.338 302.688 291.165L290.242 278.75L302.684 266.332C304.862 264.159 304.862 260.637 302.684 258.464L298.744 254.532C296.566 252.359 293.036 252.359 290.859 254.532L270.531 274.815C268.353 276.987 268.353 280.509 270.531 282.682L290.862 302.964ZM324.315 299.036L328.256 302.968C330.434 305.141 333.964 305.141 336.141 302.968L356.469 282.685C358.647 280.513 358.647 276.991 356.469 274.818L336.141 254.536C333.964 252.363 330.434 252.363 328.256 254.536L324.315 258.468C322.138 260.641 322.138 264.162 324.315 266.335L336.758 278.75L324.315 291.168C322.138 293.341 322.138 296.863 324.315 299.036ZM419.425 356.625H334.943C334.685 363.512 329.817 367.75 323.535 367.75H302.35C295.838 367.75 290.845 361.676 290.932 356.625H207.575C204.509 356.625 202 359.128 202 362.188V367.75C202 379.988 212.035 390 224.3 390H402.7C414.965 390 425 379.988 425 367.75V362.188C425 359.128 422.491 356.625 419.425 356.625ZM402.7 228.688C402.7 219.509 395.174 212 385.975 212H241.025C231.826 212 224.3 219.509 224.3 228.688V345.5H402.7V228.688ZM380.4 323.25H246.6V234.25H380.4V323.25Z" fill="white"/>
</svg>
