<?xml version="1.0" standalone="no"?>
<!DOCTYPE svg PUBLIC "-//W3C//DTD SVG 20010904//EN"
 "http://www.w3.org/TR/2001/REC-SVG-20010904/DTD/svg10.dtd">
<svg version="1.0" xmlns="http://www.w3.org/2000/svg"
 width="192.000000pt" height="192.000000pt" viewBox="0 0 192.000000 192.000000"
 preserveAspectRatio="xMidYMid meet">
<metadata>
Created by potrace 1.11, written by Peter Selinger 2001-2013
</metadata>
<g transform="translate(0.000000,192.000000) scale(0.100000,-0.100000)"
fill="#000000" stroke="none">
<path d="M25 1662 c-19 -3 -20 -10 -18 -120 1 -64 2 -120 2 -123 1 -3 135 -6
299 -7 383 -1 345 2 332 -22 -6 -11 -8 -20 -4 -20 3 0 1 -6 -5 -13 -7 -9 -10
-52 -7 -123 2 -84 8 -120 25 -157 11 -27 21 -50 21 -52 0 -2 -109 -4 -242 -4
-208 -1 -283 -4 -283 -11 0 -1 -8 -3 -17 -5 -10 -2 -30 -12 -45 -23 -28 -20
-38 -35 -61 -94 -7 -17 -11 -143 -12 -342 l-1 -316 126 0 c69 0 125 3 126 8 1
4 2 123 3 265 1 243 2 259 20 269 22 12 73 15 99 5 9 -3 17 -3 17 1 0 4 62 6
138 4 l137 -3 45 -76 c25 -41 58 -96 73 -122 15 -25 30 -54 34 -64 3 -9 9 -17
13 -17 4 0 10 -6 13 -13 4 -10 -19 -13 -99 -12 -57 0 -104 -3 -105 -7 0 -5 -1
-55 -1 -113 0 -58 1 -110 1 -115 1 -7 156 -10 471 -10 500 1 497 1 596 51 100
50 170 154 188 276 2 17 7 37 11 42 3 6 0 11 -7 11 -8 0 -9 3 -3 8 6 4 10 14
10 22 0 8 -4 18 -10 22 -6 5 -5 8 3 8 7 0 11 4 8 9 -3 4 -8 23 -10 42 -3 19
-7 45 -10 57 -8 36 -49 122 -58 122 -4 0 -8 6 -8 13 0 20 -103 95 -161 116
-88 33 -148 40 -347 41 l-92 0 6 28 c3 15 6 35 7 44 1 9 5 14 9 12 4 -3 8 31
8 75 0 50 -4 81 -11 81 -5 0 -7 5 -4 10 3 6 3 16 -2 23 -4 6 -9 21 -10 31 -2
11 -7 24 -12 30 -7 8 75 11 282 10 l292 -1 5 26 c3 14 3 42 0 61 -4 19 -3 46
0 60 4 14 4 34 0 45 -4 11 -3 28 2 38 5 9 5 18 1 18 -28 5 -806 3 -808 -1 -2
-4 -30 -5 -62 -3 -80 4 -883 9 -908 5z m928 -310 c46 -50 57 -164 23 -230 -16
-31 -17 -32 -40 -16 -35 22 -65 91 -60 139 5 57 8 67 28 98 22 32 27 33 49 9z
m610 -546 c57 -28 88 -75 92 -138 2 -29 -1 -57 -5 -63 -8 -10 -10 -16 -10 -34
0 -27 -96 -95 -127 -90 -5 1 -10 0 -13 -1 -3 -1 -87 -3 -187 -4 -155 -1 -183
1 -187 14 -7 22 -40 74 -49 78 -4 2 -5 7 -2 12 3 5 -1 14 -8 22 -11 12 -104
168 -109 185 -2 4 0 9 4 11 4 2 20 10 35 18 23 12 72 14 278 12 222 -3 254 -5
288 -22z"/>
</g>
</svg>
